<?xml version="1.0" encoding="UTF-8" standalone="no"?>
<!-- Created with Inkscape (http://www.inkscape.org/) -->

<svg
   width="922.71301"
   height="727.67773"
   viewBox="0 0 244.13447 192.5314"
   version="1.1"
   id="svg1"
   xmlns="http://www.w3.org/2000/svg"
   xmlns:svg="http://www.w3.org/2000/svg">
  <defs
     id="defs1" />
  <g
     id="layer1"
     style="display:inline;opacity:1">
    <path
       style="fill:none;fill-opacity:1;stroke:#d5d5d5;stroke-width:2.15727;stroke-miterlimit:4;stroke-dasharray:none;stroke-opacity:1"
       id="path1-5-6-6"
       d="m 67.052309,41.5333 20.959925,36.30365 -20.959921,36.30365 -41.919846,0 L 4.1725426,77.836954 25.132464,41.533302 Z"
       transform="matrix(0.31864632,0.18397054,-0.18397054,0.31864632,59.837662,-17.399796)" />
    <path
       style="fill:none;fill-opacity:1;stroke:#d5d5d5;stroke-width:2.15727;stroke-miterlimit:4;stroke-dasharray:none;stroke-opacity:1"
       id="path1-5-8"
       d="m 67.052309,41.5333 20.959925,36.30365 -20.959921,36.30365 -41.919846,0 L 4.1725426,77.836954 25.132464,41.533302 Z"
       transform="matrix(0.31864632,0.18397054,-0.18397054,0.31864632,28.893833,36.207768)" />
    <path
       style="fill:none;fill-opacity:1;stroke:#d5d5d5;stroke-width:2.15727;stroke-miterlimit:4;stroke-dasharray:none;stroke-opacity:1"
       id="path1-5-6-6-9-6"
       d="m 67.052309,41.5333 20.959925,36.30365 -20.959921,36.30365 -41.919846,0 L 4.1725426,77.836954 25.132464,41.533302 Z"
       transform="matrix(0.31864632,0.18397054,-0.18397054,0.31864632,121.71451,36.188707)" />
    <path
       style="fill:none;fill-opacity:1;stroke:#d5d5d5;stroke-width:2.15727;stroke-miterlimit:4;stroke-dasharray:none;stroke-opacity:1"
       id="path1-5-3-65"
       d="m 67.052309,41.5333 20.959925,36.30365 -20.959921,36.30365 -41.919846,0 L 4.1725426,77.836954 25.132464,41.533302 Z"
       transform="matrix(0.31864632,0.18397054,-0.18397054,0.31864632,214.51271,-17.380735)" />
    <g
       id="g2"
       style="fill:#ffb627;fill-opacity:1;stroke:none">
      <path
         style="fill:#ffb627;fill-opacity:1;stroke:none;stroke-width:2.15727;stroke-miterlimit:4;stroke-dasharray:none;stroke-opacity:1"
         id="path1-5-6"
         d="m 67.052309,41.5333 20.959925,36.30365 -20.959921,36.30365 -41.919846,0 L 4.1725426,77.836954 25.132464,41.533302 Z"
         transform="matrix(0.31864632,0.18397054,-0.18397054,0.31864632,44.385919,9.39221)" />
      <path
         style="fill:#ffb627;fill-opacity:1;stroke:none;stroke-width:2.15727;stroke-miterlimit:4;stroke-dasharray:none;stroke-opacity:1"
         id="path1-5-6-7"
         d="m 67.052309,41.5333 20.959925,36.30365 -20.959921,36.30365 -41.919846,0 L 4.1725426,77.836954 25.132464,41.533302 Z"
         transform="matrix(0.31864632,0.18397054,-0.18397054,0.31864632,106.26276,9.39221)" />
      <path
         style="fill:#ffb627;fill-opacity:1;stroke:none;stroke-width:2.15727;stroke-miterlimit:4;stroke-dasharray:none;stroke-opacity:1"
         id="path1-5-6-9-5-0"
         d="m 67.052309,41.5333 20.959925,36.30365 -20.959921,36.30365 -41.919846,0 L 4.1725426,77.836954 25.132464,41.533302 Z"
         transform="matrix(0.31864632,0.18397054,-0.18397054,0.31864632,75.263849,62.980715)" />
      <path
         style="fill:#ffb627;fill-opacity:1;stroke:none;stroke-width:2.15727;stroke-miterlimit:4;stroke-dasharray:none;stroke-opacity:1"
         id="path1-5-61"
         d="m 67.052309,41.5333 20.959925,36.30365 -20.959921,36.30365 -41.919846,0 L 4.1725426,77.836954 25.132464,41.533302 Z"
         transform="matrix(0.31864632,0.18397054,-0.18397054,0.31864632,152.63584,-17.380735)" />
      <path
         style="fill:#ffb627;fill-opacity:1;stroke:none;stroke-width:2.15727;stroke-miterlimit:4;stroke-dasharray:none;stroke-opacity:1"
         id="path1-5-6-9-50-5"
         d="m 67.052309,41.5333 20.959925,36.30365 -20.959921,36.30365 -41.919846,0 L 4.1725426,77.836954 25.132464,41.533302 Z"
         transform="matrix(0.31864632,0.18397054,-0.18397054,0.31864632,137.12901,62.980715)" />
      <path
         style="fill:#ffb627;fill-opacity:1;stroke:none;stroke-width:2.15727;stroke-miterlimit:4;stroke-dasharray:none;stroke-opacity:1"
         id="path1-5-6-6-3-2"
         d="m 67.052309,41.5333 20.959925,36.30365 -20.959921,36.30365 -41.919846,0 L 4.1725426,77.836954 25.132464,41.533302 Z"
         transform="matrix(0.31864632,0.18397054,-0.18397054,0.31864632,183.57969,36.188707)" />
      <path
         style="fill:#ffb627;fill-opacity:1;stroke:none;stroke-width:2.15727;stroke-miterlimit:4;stroke-dasharray:none;stroke-opacity:1"
         id="path1-5-6-6-9-6-9"
         d="m 67.052309,41.5333 20.959925,36.30365 -20.959921,36.30365 -41.919846,0 L 4.1725426,77.836954 25.132464,41.533302 Z"
         transform="matrix(0.31864632,0.18397054,-0.18397054,0.31864632,121.68709,89.773413)" />
    </g>
    <path
       style="fill:none;fill-opacity:1;stroke:#d5d5d5;stroke-width:2.15727;stroke-miterlimit:4;stroke-dasharray:none;stroke-opacity:1"
       id="path1-5-6-6-9-6-9-4"
       d="m 67.052309,41.5333 20.959925,36.30365 -20.959921,36.30365 -41.919846,0 L 4.1725426,77.836954 25.132464,41.533302 Z"
       transform="matrix(0.31864632,0.18397054,-0.18397054,0.31864632,121.66213,143.35812)" />
    <g
       id="g4"
       style="fill:#0bff44;fill-opacity:1;stroke:none">
      <path
         style="fill:#0bff44;fill-opacity:1;stroke:none;stroke-width:2.15727;stroke-miterlimit:4;stroke-dasharray:none;stroke-opacity:1"
         id="path1-5-3"
         d="m 67.052309,41.5333 20.959925,36.30365 -20.959921,36.30365 -41.919846,0 L 4.1725426,77.836954 25.132464,41.533302 Z"
         transform="matrix(0.31864632,0.18397054,-0.18397054,0.31864632,90.770668,-17.380735)" />
      <path
         style="fill:#0bff44;fill-opacity:1;stroke:none;stroke-width:2.15727;stroke-miterlimit:4;stroke-dasharray:none;stroke-opacity:1"
         id="path1-5-6-6-3"
         d="m 67.052309,41.5333 20.959925,36.30365 -20.959921,36.30365 -41.919846,0 L 4.1725426,77.836954 25.132464,41.533302 Z"
         transform="matrix(0.31864632,0.18397054,-0.18397054,0.31864632,59.837659,36.188707)" />
      <path
         style="fill:#0bff44;fill-opacity:1;stroke:none;stroke-width:2.15727;stroke-miterlimit:4;stroke-dasharray:none;stroke-opacity:1"
         id="path1-5-6-5"
         d="m 67.052309,41.5333 20.959925,36.30365 -20.959921,36.30365 -41.919846,0 L 4.1725426,77.836954 25.132464,41.533302 Z"
         transform="matrix(0.31864632,0.18397054,-0.18397054,0.31864632,168.12793,9.39221)" />
      <path
         style="fill:#0bff44;fill-opacity:1;stroke:none;stroke-width:2.15727;stroke-miterlimit:4;stroke-dasharray:none;stroke-opacity:1"
         id="path1-5-6-4-4"
         d="m 67.052309,41.5333 20.959925,36.30365 -20.959921,36.30365 -41.919846,0 L 4.1725426,77.836954 25.132464,41.533302 Z"
         transform="matrix(0.31864632,0.18397054,-0.18397054,0.31864632,168.12793,62.980715)" />
      <path
         style="fill:#0bff44;fill-opacity:1;stroke:none;stroke-width:2.15727;stroke-miterlimit:4;stroke-dasharray:none;stroke-opacity:1"
         id="path1-5-3-6-5"
         d="m 67.052309,41.5333 20.959925,36.30365 -20.959921,36.30365 -41.919846,0 L 4.1725426,77.836954 25.132464,41.533302 Z"
         transform="matrix(0.31864632,0.18397054,-0.18397054,0.31864632,214.51272,36.207768)" />
      <path
         style="fill:#0bff44;fill-opacity:1;stroke:none;stroke-width:2.15727;stroke-miterlimit:4;stroke-dasharray:none;stroke-opacity:1"
         id="path1-5-3-6-8"
         d="m 67.052309,41.5333 20.959925,36.30365 -20.959921,36.30365 -41.919846,0 L 4.1725426,77.836954 25.132464,41.533302 Z"
         transform="matrix(0.31864632,0.18397054,-0.18397054,0.31864632,90.743268,89.792473)" />
      <path
         style="fill:#0bff44;fill-opacity:1;stroke:none;stroke-width:2.15727;stroke-miterlimit:4;stroke-dasharray:none;stroke-opacity:1"
         id="path1-5-6-6-3-2-6"
         d="m 67.052309,41.5333 20.959925,36.30365 -20.959921,36.30365 -41.919846,0 L 4.1725426,77.836954 25.132464,41.533302 Z"
         transform="matrix(0.31864632,0.18397054,-0.18397054,0.31864632,183.55227,89.773413)" />
    </g>
    <path
       style="fill:none;fill-opacity:1;stroke:#d5d5d5;stroke-width:2.15727;stroke-miterlimit:4;stroke-dasharray:none;stroke-opacity:1"
       id="path1-5-3-6-5-6"
       d="m 67.052309,41.5333 20.959925,36.30365 -20.959921,36.30365 -41.919846,0 L 4.1725426,77.836954 25.132464,41.533302 Z"
       transform="matrix(0.31864632,0.18397054,-0.18397054,0.31864632,214.4853,89.792473)" />
    <g
       id="g1"
       style="fill:#d5d5d5;fill-opacity:1;stroke:none">
      <path
         style="fill:#d5d5d5;fill-opacity:1;stroke:none;stroke-width:2.15727;stroke-miterlimit:4;stroke-dasharray:none;stroke-opacity:1"
         id="path1-5"
         d="m 67.052309,41.5333 20.959925,36.30365 -20.959921,36.30365 -41.919846,0 L 4.1725426,77.836954 25.132464,41.533302 Z"
         transform="matrix(0.31864632,0.18397054,-0.18397054,0.31864632,28.893833,-17.380735)" />
      <path
         style="fill:#d5d5d5;fill-opacity:1;stroke:none;stroke-width:2.15727;stroke-miterlimit:4;stroke-dasharray:none;stroke-opacity:1"
         id="path1-5-6-9"
         d="m 67.052309,41.5333 20.959925,36.30365 -20.959921,36.30365 -41.919846,0 L 4.1725426,77.836954 25.132464,41.533302 Z"
         transform="matrix(0.31864632,0.18397054,-0.18397054,0.31864632,13.387015,9.39221)" />
      <path
         style="fill:#d5d5d5;fill-opacity:1;stroke:none;stroke-width:2.15727;stroke-miterlimit:4;stroke-dasharray:none;stroke-opacity:1"
         id="path1-5-6-9-5"
         d="m 67.052309,41.5333 20.959925,36.30365 -20.959921,36.30365 -41.919846,0 L 4.1725426,77.836954 25.132464,41.533302 Z"
         transform="matrix(0.31864632,0.18397054,-0.18397054,0.31864632,75.263847,9.39221)" />
      <path
         style="fill:#d5d5d5;fill-opacity:1;stroke:none;stroke-width:2.15727;stroke-miterlimit:4;stroke-dasharray:none;stroke-opacity:1"
         id="path1-5-6-6-9"
         d="m 67.052309,41.5333 20.959925,36.30365 -20.959921,36.30365 -41.919846,0 L 4.1725426,77.836954 25.132464,41.533302 Z"
         transform="matrix(0.31864632,0.18397054,-0.18397054,0.31864632,121.71451,-17.399796)" />
      <path
         style="fill:#d5d5d5;fill-opacity:1;stroke:none;stroke-width:2.15727;stroke-miterlimit:4;stroke-dasharray:none;stroke-opacity:1"
         id="path1-5-6-4"
         d="m 67.052309,41.5333 20.959925,36.30365 -20.959921,36.30365 -41.919846,0 L 4.1725426,77.836954 25.132464,41.533302 Z"
         transform="matrix(0.31864632,0.18397054,-0.18397054,0.31864632,44.385919,62.980715)" />
      <path
         style="fill:#d5d5d5;fill-opacity:1;stroke:none;stroke-width:2.15727;stroke-miterlimit:4;stroke-dasharray:none;stroke-opacity:1"
         id="path1-5-6-9-50"
         d="m 67.052309,41.5333 20.959925,36.30365 -20.959921,36.30365 -41.919846,0 L 4.1725426,77.836954 25.132464,41.533302 Z"
         transform="matrix(0.31864632,0.18397054,-0.18397054,0.31864632,13.387015,62.980715)" />
      <path
         style="fill:#d5d5d5;fill-opacity:1;stroke:none;stroke-width:2.15727;stroke-miterlimit:4;stroke-dasharray:none;stroke-opacity:1"
         id="path1-5-3-6"
         d="m 67.052309,41.5333 20.959925,36.30365 -20.959921,36.30365 -41.919846,0 L 4.1725426,77.836954 25.132464,41.533302 Z"
         transform="matrix(0.31864632,0.18397054,-0.18397054,0.31864632,90.770668,36.207768)" />
      <path
         style="fill:#d5d5d5;fill-opacity:1;stroke:none;stroke-width:2.15727;stroke-miterlimit:4;stroke-dasharray:none;stroke-opacity:1"
         id="path1-5-6-7-1"
         d="m 67.052309,41.5333 20.959925,36.30365 -20.959921,36.30365 -41.919846,0 L 4.1725426,77.836954 25.132464,41.533302 Z"
         transform="matrix(0.31864632,0.18397054,-0.18397054,0.31864632,106.26276,62.980715)" />
      <path
         style="fill:#d5d5d5;fill-opacity:1;stroke:none;stroke-width:2.15727;stroke-miterlimit:4;stroke-dasharray:none;stroke-opacity:1"
         id="path1-5-6-9-54"
         d="m 67.052309,41.5333 20.959925,36.30365 -20.959921,36.30365 -41.919846,0 L 4.1725426,77.836954 25.132464,41.533302 Z"
         transform="matrix(0.31864632,0.18397054,-0.18397054,0.31864632,137.12901,9.39221)" />
      <path
         style="fill:#d5d5d5;fill-opacity:1;stroke:none;stroke-width:2.15727;stroke-miterlimit:4;stroke-dasharray:none;stroke-opacity:1"
         id="path1-5-6-6-7"
         d="m 67.052309,41.5333 20.959925,36.30365 -20.959921,36.30365 -41.919846,0 L 4.1725426,77.836954 25.132464,41.533302 Z"
         transform="matrix(0.31864632,0.18397054,-0.18397054,0.31864632,183.57969,-17.399796)" />
      <path
         style="fill:#d5d5d5;fill-opacity:1;stroke:none;stroke-width:2.15727;stroke-miterlimit:4;stroke-dasharray:none;stroke-opacity:1"
         id="path1-5-6-7-6"
         d="m 67.052309,41.5333 20.959925,36.30365 -20.959921,36.30365 -41.919846,0 L 4.1725426,77.836954 25.132464,41.533302 Z"
         transform="matrix(0.31864632,0.18397054,-0.18397054,0.31864632,230.00482,9.39221)" />
      <path
         style="fill:#d5d5d5;fill-opacity:1;stroke:none;stroke-width:2.15727;stroke-miterlimit:4;stroke-dasharray:none;stroke-opacity:1"
         id="path1-5-6-9-5-9"
         d="m 67.052309,41.5333 20.959925,36.30365 -20.959921,36.30365 -41.919846,0 L 4.1725426,77.836954 25.132464,41.533302 Z"
         transform="matrix(0.31864632,0.18397054,-0.18397054,0.31864632,199.00588,9.39221)" />
      <path
         style="fill:#d5d5d5;fill-opacity:1;stroke:none;stroke-width:2.15727;stroke-miterlimit:4;stroke-dasharray:none;stroke-opacity:1"
         id="path1-5-8-7"
         d="m 67.052309,41.5333 20.959925,36.30365 -20.959921,36.30365 -41.919846,0 L 4.1725426,77.836954 25.132464,41.533302 Z"
         transform="matrix(0.31864632,0.18397054,-0.18397054,0.31864632,152.63584,36.207768)" />
      <path
         style="fill:#d5d5d5;fill-opacity:1;stroke:none;stroke-width:2.15727;stroke-miterlimit:4;stroke-dasharray:none;stroke-opacity:1"
         id="path1-5-8-0"
         d="m 67.052309,41.5333 20.959925,36.30365 -20.959921,36.30365 -41.919846,0 L 4.1725426,77.836954 25.132464,41.533302 Z"
         transform="matrix(0.31864632,0.18397054,-0.18397054,0.31864632,28.866429,89.792473)" />
      <path
         style="fill:#d5d5d5;fill-opacity:1;stroke:none;stroke-width:2.15727;stroke-miterlimit:4;stroke-dasharray:none;stroke-opacity:1"
         id="path1-5-6-6-3-6"
         d="m 67.052309,41.5333 20.959925,36.30365 -20.959921,36.30365 -41.919846,0 L 4.1725426,77.836954 25.132464,41.533302 Z"
         transform="matrix(0.31864632,0.18397054,-0.18397054,0.31864632,59.810255,89.773413)" />
      <path
         style="fill:#d5d5d5;fill-opacity:1;stroke:none;stroke-width:2.15727;stroke-miterlimit:4;stroke-dasharray:none;stroke-opacity:1"
         id="path1-5-8-7-2"
         d="m 67.052309,41.5333 20.959925,36.30365 -20.959921,36.30365 -41.919846,0 L 4.1725426,77.836954 25.132464,41.533302 Z"
         transform="matrix(0.31864632,0.18397054,-0.18397054,0.31864632,152.60842,89.792473)" />
      <path
         style="fill:#d5d5d5;fill-opacity:1;stroke:none;stroke-width:2.15727;stroke-miterlimit:4;stroke-dasharray:none;stroke-opacity:1"
         id="path1-5-6-7-1-4"
         d="m 67.052309,41.5333 20.959925,36.30365 -20.959921,36.30365 -41.919846,0 L 4.1725426,77.836954 25.132464,41.533302 Z"
         transform="matrix(0.31864632,0.18397054,-0.18397054,0.31864632,230.00482,62.980715)" />
      <path
         style="fill:#d5d5d5;fill-opacity:1;stroke:none;stroke-width:2.15727;stroke-miterlimit:4;stroke-dasharray:none;stroke-opacity:1"
         id="path1-5-6-9-5-0-7"
         d="m 67.052309,41.5333 20.959925,36.30365 -20.959921,36.30365 -41.919846,0 L 4.1725426,77.836954 25.132464,41.533302 Z"
         transform="matrix(0.31864632,0.18397054,-0.18397054,0.31864632,199.00589,62.980715)" />
    </g>
    <path
       style="fill:#ff3a16;fill-opacity:1;stroke:none;stroke-width:0.248699;stroke-miterlimit:4;stroke-dasharray:none;stroke-opacity:1"
       d="m 122.06202,162.27859 -7.81871,4.52181 7.84531,4.49573 7.8306,-4.48214 z"
       id="path196-0-4" />
    <g
       id="g3"
       style="fill:#00797f;fill-opacity:1;stroke:none">
      <path
         style="fill:#00797f;fill-opacity:1;stroke:none;stroke-width:0.264583;stroke-miterlimit:4;stroke-dasharray:none;stroke-opacity:1"
         d="m 215.07407,6.4310173 -3.98357,2.2882737 0.003,4.625709 4.00553,2.296266 3.99093,-2.301691 0.005,-4.595656 z"
         id="path195-4" />
      <path
         style="fill:#00797f;fill-opacity:1;stroke:none;stroke-width:0.264583;stroke-miterlimit:4;stroke-dasharray:none;stroke-opacity:1"
         d="m 219.31319,13.735535 -3.98357,2.288274 0.003,4.625709 4.00553,2.296266 3.99093,-2.301691 0.005,-4.595656 z"
         id="path195-2-0" />
      <path
         style="fill:#00797f;fill-opacity:1;stroke:none;stroke-width:0.264583;stroke-miterlimit:4;stroke-dasharray:none;stroke-opacity:1"
         d="m 210.85519,13.735531 -3.98357,2.288274 0.003,4.62571 4.00553,2.296266 3.99093,-2.301691 0.005,-4.595656 z"
         id="path195-1-3" />
      <path
         style="fill:#00797f;fill-opacity:1;stroke:none;stroke-width:0.264583;stroke-miterlimit:4;stroke-dasharray:none;stroke-opacity:1"
         d="m 122.11095,59.996667 -3.98357,2.288274 0.003,4.625709 4.00553,2.296266 3.99093,-2.301691 0.005,-4.595656 z"
         id="path195-4-7" />
      <path
         style="fill:#00797f;fill-opacity:1;stroke:none;stroke-width:0.264583;stroke-miterlimit:4;stroke-dasharray:none;stroke-opacity:1"
         d="m 126.35007,67.301185 -3.98357,2.288274 0.003,4.625709 4.00553,2.296266 3.99093,-2.301691 0.005,-4.595656 z"
         id="path195-2-0-0" />
      <path
         style="fill:#00797f;fill-opacity:1;stroke:none;stroke-width:0.264583;stroke-miterlimit:4;stroke-dasharray:none;stroke-opacity:1"
         d="m 117.89207,67.301181 -3.98357,2.288274 0.003,4.62571 4.00553,2.296266 3.99093,-2.301691 0.005,-4.595656 z"
         id="path195-1-3-0" />
      <path
         style="fill:#00797f;fill-opacity:1;stroke:none;stroke-width:0.264583;stroke-miterlimit:4;stroke-dasharray:none;stroke-opacity:1"
         d="m 29.191798,60.013823 -3.98357,2.288274 0.003,4.625709 4.00553,2.296266 3.99093,-2.301691 0.005,-4.595656 z"
         id="path195-4-7-7" />
      <path
         style="fill:#00797f;fill-opacity:1;stroke:none;stroke-width:0.264583;stroke-miterlimit:4;stroke-dasharray:none;stroke-opacity:1"
         d="m 33.430918,67.318341 -3.98357,2.288274 0.003,4.625709 4.00553,2.296266 3.99093,-2.301691 0.005,-4.595656 z"
         id="path195-2-0-0-4" />
      <path
         style="fill:#00797f;fill-opacity:1;stroke:none;stroke-width:0.264583;stroke-miterlimit:4;stroke-dasharray:none;stroke-opacity:1"
         d="m 24.972918,67.318337 -3.98357,2.288274 0.003,4.62571 4.00553,2.296266 3.99093,-2.301691 0.005,-4.595656 z"
         id="path195-1-3-0-2" />
      <path
         style="fill:#00797f;fill-opacity:1;stroke:none;stroke-width:0.264583;stroke-miterlimit:4;stroke-dasharray:none;stroke-opacity:1"
         d="m 60.245778,6.4119553 -3.98357,2.2882737 0.003,4.625709 4.00553,2.296266 3.99093,-2.301691 0.005,-4.595656 z"
         id="path195-4-7-3" />
      <path
         style="fill:#00797f;fill-opacity:1;stroke:none;stroke-width:0.264583;stroke-miterlimit:4;stroke-dasharray:none;stroke-opacity:1"
         d="m 64.484898,13.716473 -3.98357,2.288274 0.003,4.625709 4.00553,2.296266 3.99093,-2.301691 0.005,-4.595656 z"
         id="path195-2-0-0-8" />
      <path
         style="fill:#00797f;fill-opacity:1;stroke:none;stroke-width:0.264583;stroke-miterlimit:4;stroke-dasharray:none;stroke-opacity:1"
         d="m 56.026898,13.716469 -3.98357,2.288274 0.003,4.62571 4.00553,2.296266 3.99093,-2.301691 0.005,-4.595656 z"
         id="path195-1-3-0-6" />
      <path
         style="fill:#00797f;fill-opacity:1;stroke:none;stroke-width:0.264583;stroke-miterlimit:4;stroke-dasharray:none;stroke-opacity:1"
         d="m 214.84918,113.60423 -3.98357,2.28828 0.003,4.6257 4.00553,2.29627 3.99093,-2.30169 0.005,-4.59566 z"
         id="path195-4-7-31" />
      <path
         style="fill:#00797f;fill-opacity:1;stroke:none;stroke-width:0.264583;stroke-miterlimit:4;stroke-dasharray:none;stroke-opacity:1"
         d="m 219.0883,120.90875 -3.98357,2.28827 0.003,4.62571 4.00553,2.29627 3.99093,-2.30169 0.005,-4.59566 z"
         id="path195-2-0-0-83" />
      <path
         style="fill:#00797f;fill-opacity:1;stroke:none;stroke-width:0.264583;stroke-miterlimit:4;stroke-dasharray:none;stroke-opacity:1"
         d="m 210.6303,120.90875 -3.98357,2.28827 0.003,4.62571 4.00553,2.29627 3.99093,-2.3017 0.005,-4.59565 z"
         id="path195-1-3-0-4" />
    </g>
    <path
       style="display:inline;fill:#00797f;fill-opacity:1;stroke:none;stroke-width:0.264583;stroke-miterlimit:4;stroke-dasharray:none;stroke-opacity:1"
       d="m 122.06368,185.97923 3.98357,-2.28828 -0.003,-4.6257 -4.00553,-2.29627 -3.99093,2.30169 -0.005,4.59566 z"
       id="path195-4-7-31-7" />
    <path
       style="display:inline;fill:#00797f;fill-opacity:1;stroke:none;stroke-width:0.264583;stroke-miterlimit:4;stroke-dasharray:none;stroke-opacity:1"
       d="m 117.82456,178.67471 3.98357,-2.28827 -0.003,-4.62571 -4.00553,-2.29627 -3.99093,2.30169 -0.005,4.59566 z"
       id="path195-2-0-0-83-9" />
    <path
       style="display:inline;fill:#00797f;fill-opacity:1;stroke:none;stroke-width:0.264583;stroke-miterlimit:4;stroke-dasharray:none;stroke-opacity:1"
       d="m 126.28256,178.67471 3.98357,-2.28827 -0.003,-4.62571 -4.00553,-2.29627 -3.99093,2.3017 -0.005,4.59565 z"
       id="path195-1-3-0-4-2" />
    <path
       style="fill:#0199ff;fill-opacity:1;stroke:none;stroke-width:0.102678;stroke-miterlimit:4;stroke-dasharray:none;stroke-opacity:1"
       d="m 122.07332,164.92586 -3.22805,1.86689 3.23903,1.85611 3.23296,-1.8505 z"
       id="path196-0-1-7" />
  </g>
</svg>
