<svg width="352" height="1406" viewBox="0 0 352 1406" fill="none" xmlns="http://www.w3.org/2000/svg">
<path d="M180.089 283.42C180.998 283.426 181.893 283.592 182.774 283.917C183.656 284.242 184.451 284.772 185.161 285.508C185.876 286.244 186.446 287.238 186.871 288.491C187.302 289.737 187.52 291.288 187.527 293.144C187.527 294.927 187.348 296.515 186.99 297.907C186.632 299.292 186.118 300.462 185.449 301.417C184.786 302.371 183.981 303.097 183.033 303.594C182.085 304.092 181.018 304.34 179.831 304.34C178.618 304.34 177.541 304.102 176.599 303.624C175.658 303.147 174.893 302.487 174.303 301.646C173.713 300.797 173.345 299.823 173.199 298.722H176.232C176.43 299.597 176.835 300.307 177.445 300.85C178.061 301.387 178.857 301.656 179.831 301.656C181.322 301.656 182.486 301.006 183.321 299.707C184.156 298.401 184.577 296.578 184.584 294.238H184.425C184.08 294.808 183.649 295.299 183.132 295.709C182.622 296.12 182.048 296.439 181.412 296.664C180.776 296.889 180.096 297.002 179.374 297.002C178.2 297.002 177.133 296.714 176.172 296.137C175.211 295.56 174.445 294.768 173.875 293.761C173.305 292.753 173.02 291.603 173.02 290.31C173.02 289.024 173.312 287.858 173.895 286.81C174.485 285.763 175.307 284.934 176.361 284.325C177.421 283.708 178.664 283.406 180.089 283.42ZM180.099 286.005C179.324 286.005 178.625 286.197 178.001 286.582C177.385 286.959 176.898 287.473 176.54 288.123C176.182 288.766 176.003 289.482 176.003 290.271C176.003 291.059 176.175 291.775 176.52 292.418C176.871 293.055 177.348 293.562 177.952 293.94C178.562 294.311 179.258 294.496 180.04 294.496C180.623 294.496 181.167 294.384 181.67 294.158C182.174 293.933 182.615 293.621 182.993 293.224C183.371 292.819 183.666 292.362 183.878 291.852C184.09 291.341 184.196 290.804 184.196 290.241C184.196 289.492 184.017 288.796 183.659 288.153C183.308 287.51 182.824 286.993 182.207 286.602C181.591 286.204 180.888 286.005 180.099 286.005ZM197.89 283.42C198.798 283.426 199.693 283.592 200.575 283.917C201.457 284.242 202.252 284.772 202.961 285.508C203.677 286.244 204.247 287.238 204.672 288.491C205.102 289.737 205.321 291.288 205.328 293.144C205.328 294.927 205.149 296.515 204.791 297.907C204.433 299.292 203.919 300.462 203.25 301.417C202.587 302.371 201.781 303.097 200.833 303.594C199.886 304.092 198.818 304.34 197.632 304.34C196.419 304.34 195.342 304.102 194.4 303.624C193.459 303.147 192.693 302.487 192.103 301.646C191.513 300.797 191.145 299.823 191 298.722H194.032C194.231 299.597 194.636 300.307 195.245 300.85C195.862 301.387 196.657 301.656 197.632 301.656C199.123 301.656 200.287 301.006 201.122 299.707C201.957 298.401 202.378 296.578 202.385 294.238H202.225C201.881 294.808 201.45 295.299 200.933 295.709C200.422 296.12 199.849 296.439 199.213 296.664C198.576 296.889 197.897 297.002 197.174 297.002C196.001 297.002 194.934 296.714 193.973 296.137C193.011 295.56 192.246 294.768 191.676 293.761C191.106 292.753 190.821 291.603 190.821 290.31C190.821 289.024 191.112 287.858 191.696 286.81C192.286 285.763 193.108 284.934 194.162 284.325C195.222 283.708 196.465 283.406 197.89 283.42ZM197.9 286.005C197.125 286.005 196.425 286.197 195.802 286.582C195.186 286.959 194.699 287.473 194.341 288.123C193.983 288.766 193.804 289.482 193.804 290.271C193.804 291.059 193.976 291.775 194.321 292.418C194.672 293.055 195.149 293.562 195.752 293.94C196.362 294.311 197.058 294.496 197.841 294.496C198.424 294.496 198.967 294.384 199.471 294.158C199.975 293.933 200.416 293.621 200.794 293.224C201.172 292.819 201.467 292.362 201.679 291.852C201.891 291.341 201.997 290.804 201.997 290.241C201.997 289.492 201.818 288.796 201.46 288.153C201.109 287.51 200.625 286.993 200.008 286.602C199.392 286.204 198.689 286.005 197.9 286.005ZM210.18 304.251C209.636 304.251 209.169 304.058 208.778 303.674C208.387 303.283 208.191 302.812 208.191 302.262C208.191 301.718 208.387 301.254 208.778 300.87C209.169 300.479 209.636 300.283 210.18 300.283C210.724 300.283 211.191 300.479 211.582 300.87C211.973 301.254 212.169 301.718 212.169 302.262C212.169 302.627 212.076 302.961 211.89 303.266C211.711 303.565 211.473 303.803 211.174 303.982C210.876 304.161 210.545 304.251 210.18 304.251ZM222.636 283.42C223.545 283.426 224.439 283.592 225.321 283.917C226.203 284.242 226.998 284.772 227.707 285.508C228.423 286.244 228.993 287.238 229.418 288.491C229.848 289.737 230.067 291.288 230.074 293.144C230.074 294.927 229.895 296.515 229.537 297.907C229.179 299.292 228.665 300.462 227.996 301.417C227.333 302.371 226.527 303.097 225.58 303.594C224.632 304.092 223.564 304.34 222.378 304.34C221.165 304.34 220.088 304.102 219.146 303.624C218.205 303.147 217.439 302.487 216.849 301.646C216.259 300.797 215.892 299.823 215.746 298.722H218.778C218.977 299.597 219.382 300.307 219.991 300.85C220.608 301.387 221.403 301.656 222.378 301.656C223.869 301.656 225.033 301.006 225.868 299.707C226.703 298.401 227.124 296.578 227.131 294.238H226.972C226.627 294.808 226.196 295.299 225.679 295.709C225.169 296.12 224.595 296.439 223.959 296.664C223.322 296.889 222.643 297.002 221.92 297.002C220.747 297.002 219.68 296.714 218.719 296.137C217.758 295.56 216.992 294.768 216.422 293.761C215.852 292.753 215.567 291.603 215.567 290.31C215.567 289.024 215.858 287.858 216.442 286.81C217.032 285.763 217.854 284.934 218.908 284.325C219.968 283.708 221.211 283.406 222.636 283.42ZM222.646 286.005C221.871 286.005 221.171 286.197 220.548 286.582C219.932 286.959 219.445 287.473 219.087 288.123C218.729 288.766 218.55 289.482 218.55 290.271C218.55 291.059 218.722 291.775 219.067 292.418C219.418 293.055 219.895 293.562 220.499 293.94C221.108 294.311 221.804 294.496 222.587 294.496C223.17 294.496 223.714 294.384 224.217 294.158C224.721 293.933 225.162 293.621 225.54 293.224C225.918 292.819 226.213 292.362 226.425 291.852C226.637 291.341 226.743 290.804 226.743 290.241C226.743 289.492 226.564 288.796 226.206 288.153C225.855 287.51 225.371 286.993 224.754 286.602C224.138 286.204 223.435 286.005 222.646 286.005Z" fill="#0199FF"/>
<g filter="url(#filter0_d_57_746)">
<path d="M143.444 496.725L101.477 521.197L59.51 496.725L59.51 447.756L101.477 423.284L143.444 447.756L143.444 496.725Z" stroke="#0199FF" stroke-width="3" shape-rendering="crispEdges"/>
</g>
<g filter="url(#filter1_d_57_746)">
<path d="M343.158 669.912L301.191 694.384L259.224 669.912L259.224 620.943L301.191 596.471L343.158 620.943L343.158 669.912Z" stroke="#0199FF" stroke-width="3" shape-rendering="crispEdges"/>
</g>
<g filter="url(#filter2_d_57_746)">
<path d="M243.691 842.761L201.724 867.233L159.758 842.761L159.758 793.792L201.724 769.32L243.691 793.792L243.691 842.761Z" stroke="#0199FF" stroke-width="3" shape-rendering="crispEdges"/>
</g>
<g filter="url(#filter3_d_57_746)">
<path d="M243.693 1016.93L201.726 1041.4L159.759 1016.93L159.759 967.955L201.726 943.484L243.693 967.955L243.693 1016.93Z" stroke="#0199FF" stroke-width="3" shape-rendering="crispEdges"/>
</g>
<g filter="url(#filter4_d_57_746)">
<path d="M143.309 1195.1L101.342 1219.58L59.3752 1195.1L59.3752 1146.13L101.342 1121.66L143.309 1146.13L143.309 1195.1Z" stroke="#0199FF" stroke-width="3" shape-rendering="crispEdges"/>
</g>
<g filter="url(#filter5_d_57_746)">
<path d="M243.691 1370.27L201.724 1394.74L159.757 1370.27L159.757 1321.3L201.724 1296.83L243.691 1321.3L243.691 1370.27Z" stroke="#0199FF" stroke-width="3" shape-rendering="crispEdges"/>
</g>
<g filter="url(#filter6_d_57_746)">
<path d="M243.826 318.547L201.859 343.018L159.892 318.547L159.892 269.577L201.859 245.105L243.826 269.577L243.826 318.547Z" stroke="#0199FF" stroke-width="3" shape-rendering="crispEdges"/>
</g>
<g filter="url(#filter7_d_57_746)">
<path d="M143.443 142.376L101.476 166.848L59.5095 142.376L59.5095 93.406L101.476 68.9342L143.443 93.4061L143.443 142.376Z" stroke="#0199FF" stroke-width="3" shape-rendering="crispEdges"/>
</g>
<path d="M101.382 60.3892L150.868 89.0268V146.274L101.982 174.785V234.529L152.836 264.227V323.284L101.982 352.495L53.0959 323.284L1.91309 352.495L1.91335 411.87L51.7462 441.623V501.412L101.982 530.688V588.51L151.852 616.601L200.41 588.51L251.593 618.166L301.681 588.51L350.413 618.166V672.705L301.297 701.832L251.593 672.705L202.707 702.727V760.306L251.593 788.85V846.923L202.707 875.467L153.821 846.923L104.607 875.467V935.18L152.18 964.708V1025.08L102.638 1052.64V1113.66L152.18 1142.86V1199.95L102.533 1228.67V1288.55L152.18 1316.66V1376.32L201.381 1403.81L251.619 1373.78M101.382 60.3892L52.2667 89.6796M101.382 60.3892V0.0720215" stroke="#FF3A16" stroke-width="3"/>
<path d="M195.575 992.44C196.903 992.44 197.98 991.363 197.98 990.035C197.98 988.707 196.903 987.63 195.575 987.63C194.247 987.63 193.17 988.707 193.17 990.035C193.17 991.363 194.247 992.44 195.575 992.44Z" fill="#0199FF"/>
<path d="M202.795 1005.27C198.243 1005.27 194.415 1002.31 193.204 998.269C193.17 998.149 193.165 998.023 193.188 997.9C193.212 997.778 193.264 997.662 193.34 997.563C193.416 997.464 193.514 997.384 193.627 997.33C193.739 997.276 193.863 997.248 193.988 997.25H211.593C211.718 997.248 211.842 997.276 211.954 997.33C212.067 997.384 212.165 997.464 212.241 997.563C212.317 997.662 212.369 997.778 212.393 997.9C212.416 998.023 212.411 998.149 212.377 998.269C211.176 1002.31 207.347 1005.27 202.795 1005.27Z" fill="#0199FF"/>
<path d="M210.005 992.44C211.333 992.44 212.41 991.363 212.41 990.035C212.41 988.707 211.333 987.63 210.005 987.63C208.677 987.63 207.6 988.707 207.6 990.035C207.6 991.363 208.677 992.44 210.005 992.44Z" fill="#0199FF"/>
<path d="M202.79 1013.28C214.302 1013.28 223.634 1003.95 223.634 992.44C223.634 980.928 214.302 971.596 202.79 971.596C191.278 971.596 181.946 980.928 181.946 992.44C181.946 1003.95 191.278 1013.28 202.79 1013.28Z" stroke="#0199FF" stroke-width="3.20673" stroke-miterlimit="10"/>
<path d="M80.7235 457.848C89.6841 456.24 93.3888 455.05 101.477 451.397C109.564 455.05 113.269 456.24 122.23 457.848C123.853 483.577 103.022 492.462 101.477 493.084C99.9314 492.462 79.1001 483.577 80.7235 457.848Z" stroke="#0199FF" stroke-width="3.20667" stroke-linecap="round" stroke-linejoin="round"/>
<path d="M308.226 639.928V631.207C308.226 629.259 307.452 627.391 306.075 626.014C304.698 624.637 302.83 623.863 300.882 623.863C298.935 623.863 297.067 624.637 295.69 626.014C294.312 627.391 293.539 629.259 293.539 631.207V639.928" stroke="#0199FF" stroke-width="3.32245" stroke-linecap="round" stroke-linejoin="round"/>
<path d="M311.164 639.928H290.601C288.168 639.928 286.195 641.9 286.195 644.334V660.49C286.195 662.924 288.168 664.896 290.601 664.896H311.164C313.597 664.896 315.57 662.924 315.57 660.49V644.334C315.57 641.9 313.597 639.928 311.164 639.928Z" stroke="#0199FF" stroke-width="3.32245" stroke-linecap="round" stroke-linejoin="round"/>
<path d="M201.726 799.11C212.312 799.11 220.893 807.691 220.893 818.277C220.893 826.709 215.447 833.87 207.881 836.433L207.447 836.575L201.882 822.104C203.93 822.014 205.56 820.297 205.56 818.277C205.56 816.159 203.843 814.443 201.726 814.443C199.609 814.443 197.893 816.159 197.893 818.277C197.893 820.34 199.524 822.023 201.567 822.107L196.003 836.574L195.571 836.433C188.005 833.87 182.56 826.709 182.56 818.277C182.56 807.691 191.141 799.11 201.726 799.11ZM201.726 802.943C193.258 802.943 186.393 809.808 186.393 818.277C186.393 823.873 189.392 828.77 193.87 831.447L196.705 824.071C195.085 822.665 194.06 820.591 194.06 818.277C194.06 814.042 197.492 810.61 201.726 810.61C205.96 810.61 209.393 814.042 209.393 818.277C209.393 820.591 208.368 822.666 206.746 824.071C207.831 826.896 208.777 829.355 209.582 831.45C214.06 828.77 217.06 823.874 217.06 818.277C217.06 809.808 210.195 802.943 201.726 802.943Z" fill="#0199FF"/>
<path d="M220.776 1353.44V1365.56H208.652M219.671 1364.45L206.92 1351.71M182.672 1339.58V1327.46H194.796M183.776 1328.56L196.528 1341.31M208.652 1327.46H220.776V1339.58M219.668 1328.56L206.92 1341.31M194.796 1365.56H182.672V1353.44M183.78 1364.46L196.528 1351.71" stroke="#0199FF" stroke-width="3.46393" stroke-linecap="round" stroke-linejoin="round"/>
<path d="M124.317 95.4526C124.298 95.3615 124.254 95.2778 124.189 95.2111C124.124 95.1445 124.041 95.0977 123.951 95.0764C117.916 93.6004 103.975 98.8596 96.4141 106.415C95.0665 107.751 93.8378 109.203 92.7418 110.752C90.4113 110.541 88.0808 110.719 86.0965 111.584C80.4933 114.048 78.863 120.482 78.408 123.245C78.3834 123.396 78.3939 123.551 78.4388 123.698C78.4837 123.844 78.5617 123.979 78.6669 124.09C78.7721 124.202 78.9015 124.288 79.0452 124.341C79.1889 124.395 79.343 124.414 79.4956 124.399L88.4925 123.411C88.4987 124.09 88.5395 124.768 88.6146 125.442C88.6615 125.908 88.8695 126.343 89.2028 126.673L92.6863 130.156C93.016 130.49 93.4516 130.698 93.9182 130.744C94.5886 130.819 95.2623 130.86 95.9369 130.867L94.9503 139.856C94.9349 140.008 94.9547 140.162 95.0082 140.305C95.0618 140.449 95.1476 140.578 95.259 140.683C95.3705 140.788 95.5046 140.866 95.651 140.911C95.7974 140.956 95.9521 140.967 96.1033 140.942C98.8667 140.498 105.314 138.868 107.764 133.266C108.629 131.279 108.807 128.961 108.607 126.642C110.161 125.547 111.616 124.318 112.956 122.969C120.545 115.423 125.771 101.788 124.317 95.4526ZM106.211 113.193C105.548 112.531 105.097 111.686 104.914 110.767C104.731 109.848 104.825 108.895 105.183 108.029C105.542 107.163 106.149 106.423 106.929 105.902C107.708 105.381 108.624 105.104 109.562 105.104C110.499 105.104 111.415 105.381 112.194 105.902C112.974 106.423 113.581 107.163 113.94 108.029C114.298 108.895 114.392 109.848 114.209 110.767C114.026 111.686 113.575 112.531 112.912 113.193C112.472 113.634 111.95 113.984 111.375 114.222C110.8 114.461 110.184 114.583 109.562 114.583C108.939 114.583 108.323 114.461 107.748 114.222C107.173 113.984 106.651 113.634 106.211 113.193Z" stroke="#0199FF" stroke-width="3.55127" stroke-linecap="round" stroke-linejoin="round"/>
<path d="M85.2344 128.544C84.1281 128.68 83.0989 129.182 82.3102 129.969C80.3548 131.931 80.1694 139.198 80.1694 139.198C80.1694 139.198 87.4407 139.013 89.3972 137.055C90.188 136.268 90.6904 135.237 90.8232 134.129" stroke="#0199FF" stroke-width="3.55127" stroke-linecap="round" stroke-linejoin="round"/>
<path d="M106.267 1183.75V1181.29C106.267 1178.31 109.504 1175.5 111.603 1173.49C114.563 1170.66 116.118 1166.86 116.118 1162.41C116.118 1154.2 109.579 1147.63 101.342 1147.63C99.4001 1147.63 97.4762 1148.01 95.6811 1148.75C93.8859 1149.49 92.2549 1150.58 90.8817 1151.95C89.5085 1153.32 88.4204 1154.95 87.6797 1156.75C86.9391 1158.54 86.5606 1160.47 86.566 1162.41C86.566 1166.7 88.1883 1170.76 91.0809 1173.49C93.169 1175.46 96.4167 1178.28 96.4167 1181.29V1183.75M98.0585 1193.6H104.626M96.4167 1188.68H106.267M101.342 1183.75V1170.62" stroke="#0199FF" stroke-width="3.28357" stroke-linecap="round" stroke-linejoin="round"/>
<path d="M105.241 1168.98C105.241 1168.98 103.034 1170.62 101.342 1170.62C99.65 1170.62 97.4429 1168.98 97.4429 1168.98" stroke="#0199FF" stroke-width="3.28357" stroke-linecap="round" stroke-linejoin="round"/>
<defs>
<filter id="filter0_d_57_746" x="54.0098" y="421.547" width="94.9341" height="109.386" filterUnits="userSpaceOnUse" color-interpolation-filters="sRGB">
<feFlood flood-opacity="0" result="BackgroundImageFix"/>
<feColorMatrix in="SourceAlpha" type="matrix" values="0 0 0 0 0 0 0 0 0 0 0 0 0 0 0 0 0 0 127 0" result="hardAlpha"/>
<feOffset dy="4"/>
<feGaussianBlur stdDeviation="2"/>
<feComposite in2="hardAlpha" operator="out"/>
<feColorMatrix type="matrix" values="0 0 0 0 0 0 0 0 0 0 0 0 0 0 0 0 0 0 0.25 0"/>
<feBlend mode="normal" in2="BackgroundImageFix" result="effect1_dropShadow_57_746"/>
<feBlend mode="normal" in="SourceGraphic" in2="effect1_dropShadow_57_746" result="shape"/>
</filter>
<filter id="filter1_d_57_746" x="253.724" y="594.734" width="94.9341" height="109.386" filterUnits="userSpaceOnUse" color-interpolation-filters="sRGB">
<feFlood flood-opacity="0" result="BackgroundImageFix"/>
<feColorMatrix in="SourceAlpha" type="matrix" values="0 0 0 0 0 0 0 0 0 0 0 0 0 0 0 0 0 0 127 0" result="hardAlpha"/>
<feOffset dy="4"/>
<feGaussianBlur stdDeviation="2"/>
<feComposite in2="hardAlpha" operator="out"/>
<feColorMatrix type="matrix" values="0 0 0 0 0 0 0 0 0 0 0 0 0 0 0 0 0 0 0.25 0"/>
<feBlend mode="normal" in2="BackgroundImageFix" result="effect1_dropShadow_57_746"/>
<feBlend mode="normal" in="SourceGraphic" in2="effect1_dropShadow_57_746" result="shape"/>
</filter>
<filter id="filter2_d_57_746" x="154.257" y="767.583" width="94.9341" height="109.386" filterUnits="userSpaceOnUse" color-interpolation-filters="sRGB">
<feFlood flood-opacity="0" result="BackgroundImageFix"/>
<feColorMatrix in="SourceAlpha" type="matrix" values="0 0 0 0 0 0 0 0 0 0 0 0 0 0 0 0 0 0 127 0" result="hardAlpha"/>
<feOffset dy="4"/>
<feGaussianBlur stdDeviation="2"/>
<feComposite in2="hardAlpha" operator="out"/>
<feColorMatrix type="matrix" values="0 0 0 0 0 0 0 0 0 0 0 0 0 0 0 0 0 0 0.25 0"/>
<feBlend mode="normal" in2="BackgroundImageFix" result="effect1_dropShadow_57_746"/>
<feBlend mode="normal" in="SourceGraphic" in2="effect1_dropShadow_57_746" result="shape"/>
</filter>
<filter id="filter3_d_57_746" x="154.259" y="941.747" width="94.9341" height="109.386" filterUnits="userSpaceOnUse" color-interpolation-filters="sRGB">
<feFlood flood-opacity="0" result="BackgroundImageFix"/>
<feColorMatrix in="SourceAlpha" type="matrix" values="0 0 0 0 0 0 0 0 0 0 0 0 0 0 0 0 0 0 127 0" result="hardAlpha"/>
<feOffset dy="4"/>
<feGaussianBlur stdDeviation="2"/>
<feComposite in2="hardAlpha" operator="out"/>
<feColorMatrix type="matrix" values="0 0 0 0 0 0 0 0 0 0 0 0 0 0 0 0 0 0 0.25 0"/>
<feBlend mode="normal" in2="BackgroundImageFix" result="effect1_dropShadow_57_746"/>
<feBlend mode="normal" in="SourceGraphic" in2="effect1_dropShadow_57_746" result="shape"/>
</filter>
<filter id="filter4_d_57_746" x="53.875" y="1119.93" width="94.9341" height="109.386" filterUnits="userSpaceOnUse" color-interpolation-filters="sRGB">
<feFlood flood-opacity="0" result="BackgroundImageFix"/>
<feColorMatrix in="SourceAlpha" type="matrix" values="0 0 0 0 0 0 0 0 0 0 0 0 0 0 0 0 0 0 127 0" result="hardAlpha"/>
<feOffset dy="4"/>
<feGaussianBlur stdDeviation="2"/>
<feComposite in2="hardAlpha" operator="out"/>
<feColorMatrix type="matrix" values="0 0 0 0 0 0 0 0 0 0 0 0 0 0 0 0 0 0 0.25 0"/>
<feBlend mode="normal" in2="BackgroundImageFix" result="effect1_dropShadow_57_746"/>
<feBlend mode="normal" in="SourceGraphic" in2="effect1_dropShadow_57_746" result="shape"/>
</filter>
<filter id="filter5_d_57_746" x="154.257" y="1295.09" width="94.9341" height="109.386" filterUnits="userSpaceOnUse" color-interpolation-filters="sRGB">
<feFlood flood-opacity="0" result="BackgroundImageFix"/>
<feColorMatrix in="SourceAlpha" type="matrix" values="0 0 0 0 0 0 0 0 0 0 0 0 0 0 0 0 0 0 127 0" result="hardAlpha"/>
<feOffset dy="4"/>
<feGaussianBlur stdDeviation="2"/>
<feComposite in2="hardAlpha" operator="out"/>
<feColorMatrix type="matrix" values="0 0 0 0 0 0 0 0 0 0 0 0 0 0 0 0 0 0 0.25 0"/>
<feBlend mode="normal" in2="BackgroundImageFix" result="effect1_dropShadow_57_746"/>
<feBlend mode="normal" in="SourceGraphic" in2="effect1_dropShadow_57_746" result="shape"/>
</filter>
<filter id="filter6_d_57_746" x="154.392" y="243.369" width="94.9341" height="109.386" filterUnits="userSpaceOnUse" color-interpolation-filters="sRGB">
<feFlood flood-opacity="0" result="BackgroundImageFix"/>
<feColorMatrix in="SourceAlpha" type="matrix" values="0 0 0 0 0 0 0 0 0 0 0 0 0 0 0 0 0 0 127 0" result="hardAlpha"/>
<feOffset dy="4"/>
<feGaussianBlur stdDeviation="2"/>
<feComposite in2="hardAlpha" operator="out"/>
<feColorMatrix type="matrix" values="0 0 0 0 0 0 0 0 0 0 0 0 0 0 0 0 0 0 0.25 0"/>
<feBlend mode="normal" in2="BackgroundImageFix" result="effect1_dropShadow_57_746"/>
<feBlend mode="normal" in="SourceGraphic" in2="effect1_dropShadow_57_746" result="shape"/>
</filter>
<filter id="filter7_d_57_746" x="54.0093" y="67.1978" width="94.9341" height="109.386" filterUnits="userSpaceOnUse" color-interpolation-filters="sRGB">
<feFlood flood-opacity="0" result="BackgroundImageFix"/>
<feColorMatrix in="SourceAlpha" type="matrix" values="0 0 0 0 0 0 0 0 0 0 0 0 0 0 0 0 0 0 127 0" result="hardAlpha"/>
<feOffset dy="4"/>
<feGaussianBlur stdDeviation="2"/>
<feComposite in2="hardAlpha" operator="out"/>
<feColorMatrix type="matrix" values="0 0 0 0 0 0 0 0 0 0 0 0 0 0 0 0 0 0 0.25 0"/>
<feBlend mode="normal" in2="BackgroundImageFix" result="effect1_dropShadow_57_746"/>
<feBlend mode="normal" in="SourceGraphic" in2="effect1_dropShadow_57_746" result="shape"/>
</filter>
</defs>
</svg>
