<svg width="352" height="1348" viewBox="0 0 352 1348" fill="none" xmlns="http://www.w3.org/2000/svg">
<path d="M180.089 225.419C180.998 225.426 181.893 225.592 182.774 225.917C183.656 226.241 184.451 226.772 185.161 227.508C185.876 228.243 186.446 229.238 186.871 230.49C187.302 231.737 187.52 233.288 187.527 235.144C187.527 236.927 187.348 238.515 186.99 239.907C186.632 241.292 186.118 242.462 185.449 243.417C184.786 244.371 183.981 245.097 183.033 245.594C182.085 246.091 181.018 246.34 179.831 246.34C178.618 246.34 177.541 246.101 176.599 245.624C175.658 245.147 174.893 244.487 174.303 243.645C173.713 242.797 173.345 241.822 173.199 240.722H176.232C176.43 241.597 176.835 242.306 177.445 242.85C178.061 243.387 178.857 243.655 179.831 243.655C181.322 243.655 182.486 243.006 183.321 241.706C184.156 240.401 184.577 238.578 184.584 236.238H184.425C184.08 236.808 183.649 237.298 183.132 237.709C182.622 238.12 182.048 238.438 181.412 238.664C180.776 238.889 180.096 239.002 179.374 239.002C178.2 239.002 177.133 238.714 176.172 238.137C175.211 237.56 174.445 236.768 173.875 235.76C173.305 234.753 173.02 233.603 173.02 232.31C173.02 231.024 173.312 229.857 173.895 228.81C174.485 227.763 175.307 226.934 176.361 226.324C177.421 225.708 178.664 225.406 180.089 225.419ZM180.099 228.005C179.324 228.005 178.625 228.197 178.001 228.581C177.385 228.959 176.898 229.473 176.54 230.123C176.182 230.766 176.003 231.482 176.003 232.27C176.003 233.059 176.175 233.775 176.52 234.418C176.871 235.054 177.348 235.562 177.952 235.939C178.562 236.311 179.258 236.496 180.04 236.496C180.623 236.496 181.167 236.383 181.67 236.158C182.174 235.933 182.615 235.621 182.993 235.223C183.371 234.819 183.666 234.362 183.878 233.851C184.09 233.341 184.196 232.804 184.196 232.241C184.196 231.491 184.017 230.795 183.659 230.152C183.308 229.509 182.824 228.992 182.207 228.601C181.591 228.204 180.888 228.005 180.099 228.005ZM197.89 225.419C198.798 225.426 199.693 225.592 200.575 225.917C201.457 226.241 202.252 226.772 202.961 227.508C203.677 228.243 204.247 229.238 204.672 230.49C205.102 231.737 205.321 233.288 205.328 235.144C205.328 236.927 205.149 238.515 204.791 239.907C204.433 241.292 203.919 242.462 203.25 243.417C202.587 244.371 201.781 245.097 200.833 245.594C199.886 246.091 198.818 246.34 197.632 246.34C196.419 246.34 195.342 246.101 194.4 245.624C193.459 245.147 192.693 244.487 192.103 243.645C191.513 242.797 191.145 241.822 191 240.722H194.032C194.231 241.597 194.636 242.306 195.245 242.85C195.862 243.387 196.657 243.655 197.632 243.655C199.123 243.655 200.287 243.006 201.122 241.706C201.957 240.401 202.378 238.578 202.385 236.238H202.225C201.881 236.808 201.45 237.298 200.933 237.709C200.422 238.12 199.849 238.438 199.213 238.664C198.576 238.889 197.897 239.002 197.174 239.002C196.001 239.002 194.934 238.714 193.973 238.137C193.011 237.56 192.246 236.768 191.676 235.76C191.106 234.753 190.821 233.603 190.821 232.31C190.821 231.024 191.112 229.857 191.696 228.81C192.286 227.763 193.108 226.934 194.162 226.324C195.222 225.708 196.465 225.406 197.89 225.419ZM197.9 228.005C197.125 228.005 196.425 228.197 195.802 228.581C195.186 228.959 194.699 229.473 194.341 230.123C193.983 230.766 193.804 231.482 193.804 232.27C193.804 233.059 193.976 233.775 194.321 234.418C194.672 235.054 195.149 235.562 195.752 235.939C196.362 236.311 197.058 236.496 197.841 236.496C198.424 236.496 198.967 236.383 199.471 236.158C199.975 235.933 200.416 235.621 200.794 235.223C201.172 234.819 201.467 234.362 201.679 233.851C201.891 233.341 201.997 232.804 201.997 232.241C201.997 231.491 201.818 230.795 201.46 230.152C201.109 229.509 200.625 228.992 200.008 228.601C199.392 228.204 198.689 228.005 197.9 228.005ZM210.18 246.25C209.636 246.25 209.169 246.058 208.778 245.674C208.387 245.283 208.191 244.812 208.191 244.262C208.191 243.718 208.387 243.254 208.778 242.87C209.169 242.479 209.636 242.283 210.18 242.283C210.724 242.283 211.191 242.479 211.582 242.87C211.973 243.254 212.169 243.718 212.169 244.262C212.169 244.626 212.076 244.961 211.89 245.266C211.711 245.564 211.473 245.803 211.174 245.982C210.876 246.161 210.545 246.25 210.18 246.25ZM222.636 225.419C223.545 225.426 224.439 225.592 225.321 225.917C226.203 226.241 226.998 226.772 227.707 227.508C228.423 228.243 228.993 229.238 229.418 230.49C229.848 231.737 230.067 233.288 230.074 235.144C230.074 236.927 229.895 238.515 229.537 239.907C229.179 241.292 228.665 242.462 227.996 243.417C227.333 244.371 226.527 245.097 225.58 245.594C224.632 246.091 223.564 246.34 222.378 246.34C221.165 246.34 220.088 246.101 219.146 245.624C218.205 245.147 217.439 244.487 216.849 243.645C216.259 242.797 215.892 241.822 215.746 240.722H218.778C218.977 241.597 219.382 242.306 219.991 242.85C220.608 243.387 221.403 243.655 222.378 243.655C223.869 243.655 225.033 243.006 225.868 241.706C226.703 240.401 227.124 238.578 227.131 236.238H226.972C226.627 236.808 226.196 237.298 225.679 237.709C225.169 238.12 224.595 238.438 223.959 238.664C223.322 238.889 222.643 239.002 221.92 239.002C220.747 239.002 219.68 238.714 218.719 238.137C217.758 237.56 216.992 236.768 216.422 235.76C215.852 234.753 215.567 233.603 215.567 232.31C215.567 231.024 215.858 229.857 216.442 228.81C217.032 227.763 217.854 226.934 218.908 226.324C219.968 225.708 221.211 225.406 222.636 225.419ZM222.646 228.005C221.871 228.005 221.171 228.197 220.548 228.581C219.932 228.959 219.445 229.473 219.087 230.123C218.729 230.766 218.55 231.482 218.55 232.27C218.55 233.059 218.722 233.775 219.067 234.418C219.418 235.054 219.895 235.562 220.499 235.939C221.108 236.311 221.804 236.496 222.587 236.496C223.17 236.496 223.714 236.383 224.217 236.158C224.721 235.933 225.162 235.621 225.54 235.223C225.918 234.819 226.213 234.362 226.425 233.851C226.637 233.341 226.743 232.804 226.743 232.241C226.743 231.491 226.564 230.795 226.206 230.152C225.855 229.509 225.371 228.992 224.754 228.601C224.138 228.204 223.435 228.005 222.646 228.005Z" fill="#0199FF"/>
<g filter="url(#filter0_d_57_746)">
<path d="M143.444 438.725L101.477 463.197L59.51 438.725L59.51 389.755L101.477 365.284L143.444 389.755L143.444 438.725Z" stroke="#0199FF" stroke-width="3" shape-rendering="crispEdges"/>
</g>
<g filter="url(#filter1_d_57_746)">
<path d="M343.158 611.912L301.191 636.384L259.224 611.912L259.224 562.943L301.191 538.471L343.158 562.943L343.158 611.912Z" stroke="#0199FF" stroke-width="3" shape-rendering="crispEdges"/>
</g>
<g filter="url(#filter2_d_57_746)">
<path d="M243.691 784.761L201.724 809.233L159.758 784.761L159.758 735.792L201.724 711.32L243.691 735.792L243.691 784.761Z" stroke="#0199FF" stroke-width="3" shape-rendering="crispEdges"/>
</g>
<g filter="url(#filter3_d_57_746)">
<path d="M243.693 958.925L201.726 983.397L159.759 958.925L159.759 909.955L201.726 885.484L243.693 909.955L243.693 958.925Z" stroke="#0199FF" stroke-width="3" shape-rendering="crispEdges"/>
</g>
<g filter="url(#filter4_d_57_746)">
<path d="M143.309 1137.1L101.342 1161.58L59.3752 1137.1L59.3752 1088.13L101.342 1063.66L143.309 1088.13L143.309 1137.1Z" stroke="#0199FF" stroke-width="3" shape-rendering="crispEdges"/>
</g>
<g filter="url(#filter5_d_57_746)">
<path d="M243.691 1312.27L201.724 1336.74L159.757 1312.27L159.757 1263.3L201.724 1238.83L243.691 1263.3L243.691 1312.27Z" stroke="#0199FF" stroke-width="3" shape-rendering="crispEdges"/>
</g>
<g filter="url(#filter6_d_57_746)">
<path d="M243.826 260.546L201.859 285.018L159.892 260.546L159.892 211.577L201.859 187.105L243.826 211.577L243.826 260.546Z" stroke="#0199FF" stroke-width="3" shape-rendering="crispEdges"/>
</g>
<g filter="url(#filter7_d_57_746)">
<path d="M143.443 84.3755L101.476 108.847L59.5095 84.3755L59.5095 35.4058L101.476 10.9339L143.443 35.4058L143.443 84.3755Z" stroke="#0199FF" stroke-width="3" shape-rendering="crispEdges"/>
</g>
<path d="M52.2667 31.6795L101.382 2.38916L150.868 31.0267V88.2743L101.982 116.785V176.529L152.836 206.227V265.284L101.982 294.494L53.0959 265.284L1.91309 294.494L1.91335 353.87L51.7462 383.623V443.412L101.982 472.688V530.51L151.852 558.6L200.41 530.51L251.593 560.166L301.681 530.51L350.413 560.166V614.704L301.297 643.832L251.593 614.704L202.707 644.727V702.306L251.593 730.85V788.923L202.707 817.467L153.821 788.923L104.607 817.467V877.18L152.18 906.708V967.078L102.638 994.638V1055.66L152.18 1084.86V1141.95L102.533 1170.67V1230.55L152.18 1258.66V1318.32L201.381 1345.81L251.619 1315.78" stroke="#FF3A16" stroke-width="3"/>
<path d="M195.575 934.44C196.903 934.44 197.98 933.363 197.98 932.035C197.98 930.707 196.903 929.63 195.575 929.63C194.247 929.63 193.17 930.707 193.17 932.035C193.17 933.363 194.247 934.44 195.575 934.44Z" fill="#0199FF"/>
<path d="M202.795 947.267C198.243 947.267 194.415 944.308 193.204 940.269C193.17 940.149 193.165 940.023 193.188 939.9C193.212 939.778 193.264 939.662 193.34 939.563C193.416 939.464 193.514 939.384 193.627 939.33C193.739 939.276 193.863 939.248 193.988 939.25H211.593C211.718 939.248 211.842 939.276 211.954 939.33C212.067 939.384 212.165 939.464 212.241 939.563C212.317 939.662 212.369 939.778 212.393 939.9C212.416 940.023 212.411 940.149 212.377 940.269C211.176 944.308 207.347 947.267 202.795 947.267Z" fill="#0199FF"/>
<path d="M210.005 934.44C211.333 934.44 212.41 933.363 212.41 932.035C212.41 930.707 211.333 929.63 210.005 929.63C208.677 929.63 207.6 930.707 207.6 932.035C207.6 933.363 208.677 934.44 210.005 934.44Z" fill="#0199FF"/>
<path d="M202.79 955.284C214.302 955.284 223.634 945.952 223.634 934.44C223.634 922.928 214.302 913.596 202.79 913.596C191.278 913.596 181.946 922.928 181.946 934.44C181.946 945.952 191.278 955.284 202.79 955.284Z" stroke="#0199FF" stroke-width="3.20673" stroke-miterlimit="10"/>
<path d="M80.7235 399.847C89.6841 398.24 93.3888 397.05 101.477 393.397C109.564 397.05 113.269 398.24 122.23 399.847C123.853 425.577 103.022 434.461 101.477 435.084C99.9314 434.461 79.1001 425.577 80.7235 399.847Z" stroke="#0199FF" stroke-width="3.20667" stroke-linecap="round" stroke-linejoin="round"/>
<path d="M308.226 581.928V573.207C308.226 571.259 307.452 569.391 306.075 568.014C304.698 566.637 302.83 565.863 300.882 565.863C298.935 565.863 297.067 566.637 295.69 568.014C294.312 569.391 293.539 571.259 293.539 573.207V581.928" stroke="#0199FF" stroke-width="3.32245" stroke-linecap="round" stroke-linejoin="round"/>
<path d="M311.164 581.928H290.601C288.168 581.928 286.195 583.9 286.195 586.334V602.49C286.195 604.924 288.168 606.896 290.601 606.896H311.164C313.597 606.896 315.57 604.924 315.57 602.49V586.334C315.57 583.9 313.597 581.928 311.164 581.928Z" stroke="#0199FF" stroke-width="3.32245" stroke-linecap="round" stroke-linejoin="round"/>
<path d="M201.726 741.11C212.312 741.11 220.893 749.691 220.893 760.277C220.893 768.709 215.447 775.87 207.881 778.433L207.447 778.575L201.882 764.104C203.93 764.014 205.56 762.297 205.56 760.277C205.56 758.159 203.843 756.443 201.726 756.443C199.609 756.443 197.893 758.159 197.893 760.277C197.893 762.34 199.524 764.023 201.567 764.107L196.003 778.574L195.571 778.433C188.005 775.87 182.56 768.709 182.56 760.277C182.56 749.691 191.141 741.11 201.726 741.11ZM201.726 744.943C193.258 744.943 186.393 751.808 186.393 760.277C186.393 765.873 189.392 770.77 193.87 773.447L196.705 766.071C195.085 764.665 194.06 762.591 194.06 760.277C194.06 756.042 197.492 752.61 201.726 752.61C205.96 752.61 209.393 756.042 209.393 760.277C209.393 762.591 208.368 764.666 206.746 766.071C207.831 768.896 208.777 771.355 209.582 773.45C214.06 770.77 217.06 765.874 217.06 760.277C217.06 751.808 210.195 744.943 201.726 744.943Z" fill="#0199FF"/>
<path d="M220.776 1295.44V1307.56H208.652M219.671 1306.45L206.92 1293.71M182.672 1281.58V1269.46H194.796M183.776 1270.56L196.528 1283.31M208.652 1269.46H220.776V1281.58M219.668 1270.56L206.92 1283.31M194.796 1307.56H182.672V1295.44M183.78 1306.46L196.528 1293.71" stroke="#0199FF" stroke-width="3.46393" stroke-linecap="round" stroke-linejoin="round"/>
<path d="M124.317 37.4524C124.298 37.3613 124.254 37.2775 124.189 37.2109C124.124 37.1442 124.041 37.0975 123.951 37.0762C117.916 35.6002 103.975 40.8594 96.4141 48.4147C95.0665 49.7512 93.8378 51.2023 92.7418 52.7517C90.4113 52.5408 88.0808 52.7184 86.0965 53.584C80.4933 56.0477 78.863 62.4822 78.408 65.2444C78.3834 65.3957 78.3939 65.5507 78.4388 65.6974C78.4837 65.844 78.5617 65.9783 78.6669 66.0899C78.7721 66.2015 78.9015 66.2874 79.0452 66.341C79.1889 66.3945 79.343 66.4142 79.4956 66.3986L88.4925 65.4109C88.4987 66.0895 88.5395 66.7673 88.6146 67.4417C88.6615 67.9079 88.8695 68.3431 89.2028 68.6725L92.6863 72.1561C93.016 72.4895 93.4516 72.6975 93.9182 72.7442C94.5886 72.819 95.2623 72.8597 95.9369 72.8663L94.9503 81.8555C94.9349 82.0078 94.9547 82.1617 95.0082 82.3051C95.0618 82.4486 95.1476 82.5778 95.259 82.6829C95.3705 82.7879 95.5046 82.8658 95.651 82.9108C95.7974 82.9557 95.9521 82.9664 96.1033 82.9419C98.8667 82.498 105.314 80.8678 107.764 75.2656C108.629 73.2791 108.807 70.9608 108.607 68.6414C110.161 67.5464 111.616 66.3177 112.956 64.9692C120.545 57.4227 125.771 43.7881 124.317 37.4524ZM106.211 55.1932C105.548 54.5305 105.097 53.6862 104.914 52.7669C104.731 51.8476 104.825 50.8948 105.183 50.0288C105.542 49.1629 106.149 48.4227 106.929 47.902C107.708 47.3812 108.624 47.1033 109.562 47.1033C110.499 47.1033 111.415 47.3812 112.194 47.902C112.974 48.4227 113.581 49.1629 113.94 50.0288C114.298 50.8948 114.392 51.8476 114.209 52.7669C114.026 53.6862 113.575 54.5305 112.912 55.1932C112.472 55.6338 111.95 55.9833 111.375 56.2218C110.8 56.4603 110.184 56.5831 109.562 56.5831C108.939 56.5831 108.323 56.4603 107.748 56.2218C107.173 55.9833 106.651 55.6338 106.211 55.1932Z" stroke="#0199FF" stroke-width="3.55127" stroke-linecap="round" stroke-linejoin="round"/>
<path d="M85.2344 70.5442C84.1281 70.68 83.0989 71.1815 82.3102 71.9691C80.3548 73.9312 80.1694 81.198 80.1694 81.198C80.1694 81.198 87.4407 81.0127 89.3972 79.055C90.188 78.2676 90.6904 77.2366 90.8232 76.1286" stroke="#0199FF" stroke-width="3.55127" stroke-linecap="round" stroke-linejoin="round"/>
<path d="M106.267 1125.75V1123.29C106.267 1120.31 109.504 1117.5 111.603 1115.49C114.563 1112.66 116.118 1108.86 116.118 1104.41C116.118 1096.2 109.579 1089.63 101.342 1089.63C99.4001 1089.63 97.4762 1090.01 95.6811 1090.75C93.8859 1091.49 92.2549 1092.58 90.8817 1093.95C89.5085 1095.32 88.4204 1096.95 87.6797 1098.75C86.9391 1100.54 86.5606 1102.47 86.566 1104.41C86.566 1108.7 88.1883 1112.76 91.0809 1115.49C93.169 1117.46 96.4167 1120.28 96.4167 1123.29V1125.75M98.0585 1135.6H104.626M96.4167 1130.68H106.267M101.342 1125.75V1112.62" stroke="#0199FF" stroke-width="3.28357" stroke-linecap="round" stroke-linejoin="round"/>
<path d="M105.241 1110.98C105.241 1110.98 103.034 1112.62 101.342 1112.62C99.65 1112.62 97.4429 1110.98 97.4429 1110.98" stroke="#0199FF" stroke-width="3.28357" stroke-linecap="round" stroke-linejoin="round"/>
<defs>
<filter id="filter0_d_57_746" x="54.0098" y="363.547" width="94.9341" height="109.386" filterUnits="userSpaceOnUse" color-interpolation-filters="sRGB">
<feFlood flood-opacity="0" result="BackgroundImageFix"/>
<feColorMatrix in="SourceAlpha" type="matrix" values="0 0 0 0 0 0 0 0 0 0 0 0 0 0 0 0 0 0 127 0" result="hardAlpha"/>
<feOffset dy="4"/>
<feGaussianBlur stdDeviation="2"/>
<feComposite in2="hardAlpha" operator="out"/>
<feColorMatrix type="matrix" values="0 0 0 0 0 0 0 0 0 0 0 0 0 0 0 0 0 0 0.25 0"/>
<feBlend mode="normal" in2="BackgroundImageFix" result="effect1_dropShadow_57_746"/>
<feBlend mode="normal" in="SourceGraphic" in2="effect1_dropShadow_57_746" result="shape"/>
</filter>
<filter id="filter1_d_57_746" x="253.724" y="536.734" width="94.9341" height="109.386" filterUnits="userSpaceOnUse" color-interpolation-filters="sRGB">
<feFlood flood-opacity="0" result="BackgroundImageFix"/>
<feColorMatrix in="SourceAlpha" type="matrix" values="0 0 0 0 0 0 0 0 0 0 0 0 0 0 0 0 0 0 127 0" result="hardAlpha"/>
<feOffset dy="4"/>
<feGaussianBlur stdDeviation="2"/>
<feComposite in2="hardAlpha" operator="out"/>
<feColorMatrix type="matrix" values="0 0 0 0 0 0 0 0 0 0 0 0 0 0 0 0 0 0 0.25 0"/>
<feBlend mode="normal" in2="BackgroundImageFix" result="effect1_dropShadow_57_746"/>
<feBlend mode="normal" in="SourceGraphic" in2="effect1_dropShadow_57_746" result="shape"/>
</filter>
<filter id="filter2_d_57_746" x="154.257" y="709.583" width="94.9341" height="109.386" filterUnits="userSpaceOnUse" color-interpolation-filters="sRGB">
<feFlood flood-opacity="0" result="BackgroundImageFix"/>
<feColorMatrix in="SourceAlpha" type="matrix" values="0 0 0 0 0 0 0 0 0 0 0 0 0 0 0 0 0 0 127 0" result="hardAlpha"/>
<feOffset dy="4"/>
<feGaussianBlur stdDeviation="2"/>
<feComposite in2="hardAlpha" operator="out"/>
<feColorMatrix type="matrix" values="0 0 0 0 0 0 0 0 0 0 0 0 0 0 0 0 0 0 0.25 0"/>
<feBlend mode="normal" in2="BackgroundImageFix" result="effect1_dropShadow_57_746"/>
<feBlend mode="normal" in="SourceGraphic" in2="effect1_dropShadow_57_746" result="shape"/>
</filter>
<filter id="filter3_d_57_746" x="154.259" y="883.747" width="94.9341" height="109.386" filterUnits="userSpaceOnUse" color-interpolation-filters="sRGB">
<feFlood flood-opacity="0" result="BackgroundImageFix"/>
<feColorMatrix in="SourceAlpha" type="matrix" values="0 0 0 0 0 0 0 0 0 0 0 0 0 0 0 0 0 0 127 0" result="hardAlpha"/>
<feOffset dy="4"/>
<feGaussianBlur stdDeviation="2"/>
<feComposite in2="hardAlpha" operator="out"/>
<feColorMatrix type="matrix" values="0 0 0 0 0 0 0 0 0 0 0 0 0 0 0 0 0 0 0.25 0"/>
<feBlend mode="normal" in2="BackgroundImageFix" result="effect1_dropShadow_57_746"/>
<feBlend mode="normal" in="SourceGraphic" in2="effect1_dropShadow_57_746" result="shape"/>
</filter>
<filter id="filter4_d_57_746" x="53.875" y="1061.93" width="94.9341" height="109.386" filterUnits="userSpaceOnUse" color-interpolation-filters="sRGB">
<feFlood flood-opacity="0" result="BackgroundImageFix"/>
<feColorMatrix in="SourceAlpha" type="matrix" values="0 0 0 0 0 0 0 0 0 0 0 0 0 0 0 0 0 0 127 0" result="hardAlpha"/>
<feOffset dy="4"/>
<feGaussianBlur stdDeviation="2"/>
<feComposite in2="hardAlpha" operator="out"/>
<feColorMatrix type="matrix" values="0 0 0 0 0 0 0 0 0 0 0 0 0 0 0 0 0 0 0.25 0"/>
<feBlend mode="normal" in2="BackgroundImageFix" result="effect1_dropShadow_57_746"/>
<feBlend mode="normal" in="SourceGraphic" in2="effect1_dropShadow_57_746" result="shape"/>
</filter>
<filter id="filter5_d_57_746" x="154.257" y="1237.09" width="94.9341" height="109.386" filterUnits="userSpaceOnUse" color-interpolation-filters="sRGB">
<feFlood flood-opacity="0" result="BackgroundImageFix"/>
<feColorMatrix in="SourceAlpha" type="matrix" values="0 0 0 0 0 0 0 0 0 0 0 0 0 0 0 0 0 0 127 0" result="hardAlpha"/>
<feOffset dy="4"/>
<feGaussianBlur stdDeviation="2"/>
<feComposite in2="hardAlpha" operator="out"/>
<feColorMatrix type="matrix" values="0 0 0 0 0 0 0 0 0 0 0 0 0 0 0 0 0 0 0.25 0"/>
<feBlend mode="normal" in2="BackgroundImageFix" result="effect1_dropShadow_57_746"/>
<feBlend mode="normal" in="SourceGraphic" in2="effect1_dropShadow_57_746" result="shape"/>
</filter>
<filter id="filter6_d_57_746" x="154.392" y="185.368" width="94.9341" height="109.386" filterUnits="userSpaceOnUse" color-interpolation-filters="sRGB">
<feFlood flood-opacity="0" result="BackgroundImageFix"/>
<feColorMatrix in="SourceAlpha" type="matrix" values="0 0 0 0 0 0 0 0 0 0 0 0 0 0 0 0 0 0 127 0" result="hardAlpha"/>
<feOffset dy="4"/>
<feGaussianBlur stdDeviation="2"/>
<feComposite in2="hardAlpha" operator="out"/>
<feColorMatrix type="matrix" values="0 0 0 0 0 0 0 0 0 0 0 0 0 0 0 0 0 0 0.25 0"/>
<feBlend mode="normal" in2="BackgroundImageFix" result="effect1_dropShadow_57_746"/>
<feBlend mode="normal" in="SourceGraphic" in2="effect1_dropShadow_57_746" result="shape"/>
</filter>
<filter id="filter7_d_57_746" x="54.0093" y="9.19751" width="94.9341" height="109.386" filterUnits="userSpaceOnUse" color-interpolation-filters="sRGB">
<feFlood flood-opacity="0" result="BackgroundImageFix"/>
<feColorMatrix in="SourceAlpha" type="matrix" values="0 0 0 0 0 0 0 0 0 0 0 0 0 0 0 0 0 0 127 0" result="hardAlpha"/>
<feOffset dy="4"/>
<feGaussianBlur stdDeviation="2"/>
<feComposite in2="hardAlpha" operator="out"/>
<feColorMatrix type="matrix" values="0 0 0 0 0 0 0 0 0 0 0 0 0 0 0 0 0 0 0.25 0"/>
<feBlend mode="normal" in2="BackgroundImageFix" result="effect1_dropShadow_57_746"/>
<feBlend mode="normal" in="SourceGraphic" in2="effect1_dropShadow_57_746" result="shape"/>
</filter>
</defs>
</svg>
