<?xml version="1.0" encoding="UTF-8" standalone="no"?>
<!-- Created with Inkscape (http://www.inkscape.org/) -->

<svg
   width="600"
   height="600"
   viewBox="0 0 158.74999 158.75"
   version="1.1"
   id="svg1"
   xmlns:xlink="http://www.w3.org/1999/xlink"
   xmlns="http://www.w3.org/2000/svg"
   xmlns:svg="http://www.w3.org/2000/svg">
  <defs
     id="defs1">
    <linearGradient
       id="linearGradient25">
      <stop
         style="stop-color:#ff0000;stop-opacity:1;"
         offset="0"
         id="stop25" />
      <stop
         style="stop-color:#fff900;stop-opacity:1;"
         offset="0.51056337"
         id="stop32" />
      <stop
         style="stop-color:#9600ff;stop-opacity:1;"
         offset="1"
         id="stop26" />
    </linearGradient>
    <linearGradient
       id="linearGradient23">
      <stop
         style="stop-color:#ff0000;stop-opacity:1;"
         offset="0"
         id="stop22" />
      <stop
         style="stop-color:#ffdd00;stop-opacity:1;"
         offset="1"
         id="stop23" />
    </linearGradient>
    <linearGradient
       id="linearGradient20">
      <stop
         style="stop-color:#ff0000;stop-opacity:1;"
         offset="0"
         id="stop20" />
      <stop
         style="stop-color:#ffdd00;stop-opacity:1;"
         offset="1"
         id="stop21" />
    </linearGradient>
    <linearGradient
       id="linearGradient18">
      <stop
         style="stop-color:#ff0000;stop-opacity:1;"
         offset="0"
         id="stop18" />
      <stop
         style="stop-color:#ffdd00;stop-opacity:1;"
         offset="1"
         id="stop19" />
    </linearGradient>
    <linearGradient
       id="linearGradient16">
      <stop
         style="stop-color:#ff0000;stop-opacity:1;"
         offset="0"
         id="stop16" />
      <stop
         style="stop-color:#ffdd00;stop-opacity:1;"
         offset="1"
         id="stop17" />
    </linearGradient>
    <marker
       style="overflow:visible"
       id="Triangle-1-3"
       refX="0"
       refY="0"
       orient="auto-start-reverse"
       markerWidth="1.001"
       markerHeight="1.001"
       viewBox="0 0 1 1"
       preserveAspectRatio="xMidYMid">
      <path
         transform="scale(0.5)"
         style="fill:context-stroke;fill-rule:evenodd;stroke:context-stroke;stroke-width:1pt"
         d="M 5.77,0 -2.88,5 V -5 Z"
         id="path135-9-2" />
    </marker>
    <marker
       style="overflow:visible"
       id="Triangle-1-3_Fnone_S-ffdd00"
       refX="0"
       refY="0"
       orient="auto-start-reverse"
       markerWidth="1.001"
       markerHeight="1.001"
       viewBox="0 0 1 1"
       preserveAspectRatio="xMidYMid">
      <path
         transform="scale(0.5)"
         style="fill:#ffdd00;fill-rule:evenodd;stroke:#ffdd00;stroke-width:1pt"
         d="M 5.77,0 -2.88,5 V -5 Z"
         id="path1" />
    </marker>
    <marker
       style="overflow:visible"
       id="Triangle-1-3_Fnone_S-ffdd00_reversed"
       refX="0"
       refY="0"
       orient="auto"
       markerWidth="1.001"
       markerHeight="1.001"
       viewBox="0 0 1 1"
       preserveAspectRatio="xMidYMid">
      <g
         transform="rotate(180,0,0)"
         id="g5">
        <path
           transform="scale(0.5)"
           style="fill:#ffdd00;fill-rule:evenodd;stroke:#ffdd00;stroke-width:1pt"
           d="M 5.77,0 -2.88,5 V -5 Z"
           id="path5" />
      </g>
    </marker>
    <marker
       style="overflow:visible"
       id="Triangle-9-5-2"
       refX="0"
       refY="0"
       orient="auto-start-reverse"
       markerWidth="1.001"
       markerHeight="1.001"
       viewBox="0 0 1 1"
       preserveAspectRatio="xMidYMid">
      <path
         transform="scale(0.5)"
         style="fill:context-stroke;fill-rule:evenodd;stroke:context-stroke;stroke-width:1pt"
         d="M 5.77,0 -2.88,5 V -5 Z"
         id="path135-7-6-6" />
    </marker>
    <marker
       style="overflow:visible"
       id="Triangle-9-5-2_Fnone_S-ffdd00"
       refX="0"
       refY="0"
       orient="auto-start-reverse"
       markerWidth="1.001"
       markerHeight="1.001"
       viewBox="0 0 1 1"
       preserveAspectRatio="xMidYMid">
      <path
         transform="scale(0.5)"
         style="fill:#ffdd00;fill-rule:evenodd;stroke:#ffdd00;stroke-width:1pt"
         d="M 5.77,0 -2.88,5 V -5 Z"
         id="path2" />
    </marker>
    <marker
       style="overflow:visible"
       id="Triangle-9-5-2_Fnone_S-ffdd00_reversed"
       refX="0"
       refY="0"
       orient="auto"
       markerWidth="1.001"
       markerHeight="1.001"
       viewBox="0 0 1 1"
       preserveAspectRatio="xMidYMid">
      <g
         transform="rotate(180,0,0)"
         id="g6">
        <path
           transform="scale(0.5)"
           style="fill:#ffdd00;fill-rule:evenodd;stroke:#ffdd00;stroke-width:1pt"
           d="M 5.77,0 -2.88,5 V -5 Z"
           id="path6" />
      </g>
    </marker>
    <marker
       style="overflow:visible"
       id="Triangle-94-9-7"
       refX="0"
       refY="0"
       orient="auto-start-reverse"
       markerWidth="1.001"
       markerHeight="1.001"
       viewBox="0 0 1 1"
       preserveAspectRatio="xMidYMid">
      <path
         transform="scale(0.5)"
         style="fill:context-stroke;fill-rule:evenodd;stroke:context-stroke;stroke-width:1pt"
         d="M 5.77,0 -2.88,5 V -5 Z"
         id="path135-78-8-9" />
    </marker>
    <marker
       style="overflow:visible"
       id="Triangle-94-9-7_Fnone_S-ffdd00"
       refX="0"
       refY="0"
       orient="auto-start-reverse"
       markerWidth="1.001"
       markerHeight="1.001"
       viewBox="0 0 1 1"
       preserveAspectRatio="xMidYMid">
      <path
         transform="scale(0.5)"
         style="fill:#ffdd00;fill-rule:evenodd;stroke:#ffdd00;stroke-width:1pt"
         d="M 5.77,0 -2.88,5 V -5 Z"
         id="path3" />
    </marker>
    <marker
       style="overflow:visible"
       id="Triangle-94-9-7_Fnone_S-ffdd00_reversed"
       refX="0"
       refY="0"
       orient="auto"
       markerWidth="1.001"
       markerHeight="1.001"
       viewBox="0 0 1 1"
       preserveAspectRatio="xMidYMid">
      <g
         transform="rotate(180,0,0)"
         id="g7">
        <path
           transform="scale(0.5)"
           style="fill:#ffdd00;fill-rule:evenodd;stroke:#ffdd00;stroke-width:1pt"
           d="M 5.77,0 -2.88,5 V -5 Z"
           id="path7" />
      </g>
    </marker>
    <marker
       style="overflow:visible"
       id="Triangle-0-7-6"
       refX="0"
       refY="0"
       orient="auto-start-reverse"
       markerWidth="1.001"
       markerHeight="1.001"
       viewBox="0 0 1 1"
       preserveAspectRatio="xMidYMid">
      <path
         transform="scale(0.5)"
         style="fill:context-stroke;fill-rule:evenodd;stroke:context-stroke;stroke-width:1pt"
         d="M 5.77,0 -2.88,5 V -5 Z"
         id="path135-6-2-0" />
    </marker>
    <marker
       style="overflow:visible"
       id="Triangle-0-7-6_Fnone_S-ffdd00"
       refX="0"
       refY="0"
       orient="auto-start-reverse"
       markerWidth="1.001"
       markerHeight="1.001"
       viewBox="0 0 1 1"
       preserveAspectRatio="xMidYMid">
      <path
         transform="scale(0.5)"
         style="fill:#ffdd00;fill-rule:evenodd;stroke:#ffdd00;stroke-width:1pt"
         d="M 5.77,0 -2.88,5 V -5 Z"
         id="path4" />
    </marker>
    <marker
       style="overflow:visible"
       id="Triangle-0-7-6_Fnone_S-ffdd00_reversed"
       refX="0"
       refY="0"
       orient="auto"
       markerWidth="1.001"
       markerHeight="1.001"
       viewBox="0 0 1 1"
       preserveAspectRatio="xMidYMid">
      <g
         transform="rotate(180,0,0)"
         id="g8">
        <path
           transform="scale(0.5)"
           style="fill:#ffdd00;fill-rule:evenodd;stroke:#ffdd00;stroke-width:1pt"
           d="M 5.77,0 -2.88,5 V -5 Z"
           id="path8" />
      </g>
    </marker>
    <linearGradient
       xlink:href="#linearGradient16"
       id="linearGradient17"
       x1="-242.27737"
       y1="246.75784"
       x2="-235.88686"
       y2="246.75784"
       gradientUnits="userSpaceOnUse"
       gradientTransform="matrix(1.7197618,0,0,1.7197618,170.83189,-169.37016)" />
    <linearGradient
       xlink:href="#linearGradient18"
       id="linearGradient19"
       x1="-232.66005"
       y1="247.09972"
       x2="-224.99303"
       y2="247.09972"
       gradientUnits="userSpaceOnUse"
       gradientTransform="matrix(1.5768375,0,0,1.5768375,134.20704,-138.68857)" />
    <linearGradient
       xlink:href="#linearGradient20"
       id="linearGradient21"
       x1="-220.5704"
       y1="246.95425"
       x2="-213.1937"
       y2="246.95425"
       gradientUnits="userSpaceOnUse"
       gradientTransform="matrix(1.5175158,0,0,1.5175158,114.05513,-115.36637)" />
    <linearGradient
       xlink:href="#linearGradient23"
       id="linearGradient22"
       x1="-234.83733"
       y1="261.49109"
       x2="-222.81575"
       y2="261.49109"
       gradientUnits="userSpaceOnUse"
       gradientTransform="matrix(1.3678909,0,0,1.3678909,82.675999,-88.688842)" />
    <linearGradient
       xlink:href="#linearGradient25"
       id="linearGradient26"
       x1="2.9270422"
       y1="77.836952"
       x2="89.257736"
       y2="77.836952"
       gradientUnits="userSpaceOnUse" />
  </defs>
  <g
     id="layer1"
     style="display:inline;opacity:1"
     transform="translate(309.70884,-209.55)">
    <path
       d="m -246.09633,312.19937 -7.41275,-0.008 c -0.81542,0 -1.48256,0.66713 -1.48256,1.48254 v 13.34296 c 0,0.81542 0.66714,1.48256 1.48256,1.48256 h 7.41275 c 0.8154,0 1.48256,-0.66714 1.48256,-1.48256 v -13.34296 c 0,-0.81541 -0.66716,-1.47514 -1.48256,-1.47514 z m 0,13.33553 h -7.41275 v -10.37787 h 7.41275 z"
       id="path2-6-5"
       style="display:inline;fill:#ffffff;fill-opacity:1;stroke-width:0.741275" />
    <path
       d="m -278.62333,325.63718 c 0.97015,0 1.7551,-0.79375 1.7551,-1.76394 l 0.0105,-8.81962 c 0,-0.97016 -0.79374,-1.76394 -1.76393,-1.76394 h -14.11139 c -0.97017,0 -1.76395,0.79378 -1.76395,1.76394 v 8.81962 c 0,0.97019 0.79378,1.76394 1.76395,1.76394 h -3.52789 v 1.76394 h 21.16713 v -1.76394 z m -14.1114,-10.58356 h 14.1114 v 8.81962 h -14.1114 z"
       id="path2-5-5"
       style="display:inline;fill:#ffffff;fill-opacity:1;stroke-width:0.881965" />
    <path
       d="m -184.79394,317.87445 v 5.55964 a 0.61773791,0.61773791 0 0 0 0.61775,0.61775 h 6.17737 a 0.61773791,0.61773791 0 0 1 0,1.23547 h -1.23548 v 1.23548 h 1.23548 a 0.61773802,0.61773802 0 0 1 0,1.23547 h -3.70642 a 0.61773802,0.61773802 0 0 1 0,-1.23547 h 1.23547 v -1.23548 h -3.70642 a 1.8532137,1.8532137 0 0 1 -1.85322,-1.85322 v -5.55964 a 1.8532137,1.8532137 0 0 1 1.85322,-1.85321 h 6.17737 a 0.61773791,0.61773791 0 0 1 0,1.23547 h -6.17737 a 0.61773791,0.61773791 0 0 0 -0.61775,0.61774 z m 14.20798,-2.47095 h -2.47095 a 0.61774,0.61774 0 0 0 0,1.23548 h 2.47095 a 0.61774,0.61774 0 0 0 0,-1.23548 z m 0,2.47095 h -2.47095 a 0.61774,0.61774 0 0 0 0,1.23548 h 2.47095 a 0.61774,0.61774 0 0 0 0,-1.23548 z m 3.08869,-3.70642 v 12.35476 a 1.2354758,1.2354758 0 0 1 -1.23548,1.23547 h -6.17738 a 1.2354758,1.2354758 0 0 1 -1.23548,-1.23547 v -12.35476 a 1.2354758,1.2354758 0 0 1 1.23548,-1.23548 h 6.17738 a 1.2354758,1.2354758 0 0 1 1.23548,1.23548 z m -1.23548,12.35476 v -12.35476 h -6.17738 v 12.35476 z m -3.08869,-3.0887 a 0.92660689,0.92660689 0 1 0 0.92661,0.92661 0.92660689,0.92660689 0 0 0 -0.92661,-0.92661 z"
       id="path1-0-2"
       style="display:inline;fill:#ffffff;fill-opacity:1;stroke-width:0.077217" />
    <path
       d="m -207.28939,315.48077 h -5.34703 l 2.31773,-2.31776 -0.49312,-0.50019 -2.81796,2.81795 -2.81795,-2.81795 -0.50017,0.50019 2.32479,2.31776 h -5.34707 a 1.4089751,1.4089751 0 0 0 -1.40895,1.40897 v 8.45386 c 0,0.77493 0.63403,1.40897 1.40895,1.40897 h 12.68078 c 0.77494,0 1.40899,-0.63404 1.40899,-1.40897 v -8.45386 a 1.4089751,1.4089751 0 0 0 -1.40899,-1.40897 z m 0,9.86283 h -12.68078 v -8.45386 h 12.68078 z m -8.45384,-7.04488 v 5.6359 l 4.93142,-2.81794 z"
       id="path2-2-9"
       style="display:inline;fill:#ffffff;fill-opacity:1;stroke-width:0.704487" />
    <rect
       style="display:inline;fill:none;fill-opacity:1;stroke:#37ff00;stroke-width:0.715806;stroke-linecap:round;stroke-linejoin:round;stroke-dasharray:none;stroke-dashoffset:0;stroke-opacity:1;paint-order:markers fill stroke"
       id="rect16-2"
       width="143.16125"
       height="28.980072"
       x="-301.91449"
       y="305.69879" />
    <path
       d="m -234.83733,251.69753 c 0,-0.60446 -0.49455,-1.09901 -1.09901,-1.09901 h -8.79215 c -0.60444,0 -1.09901,0.49455 -1.09901,1.09901 v 6.59409 c 0,0.60444 0.49457,1.09901 1.09901,1.09901 h 8.79213 c 0.60448,0 1.09902,-0.49457 1.09902,-1.09901 z m -1.09901,0 -4.39607,2.74753 -4.39608,-2.74753 z m 0,6.59409 h -8.79215 v -5.49507 l 4.39608,2.74752 4.39605,-2.74752 z"
       id="path2-7-7-0"
       style="display:inline;fill:url(#linearGradient17);stroke-width:0.549507" />
    <path
       d="m -215.06681,253.7935 c -3.08961,0 -5.59714,2.50751 -5.59714,5.59713 0,3.0896 2.50753,5.59713 5.59714,5.59713 3.08962,0 5.59713,-2.50753 5.59713,-5.59713 0,-3.08962 -2.50748,-5.59715 -5.59713,-5.59713 z m 0,10.07485 c -2.46833,0 -4.47771,-2.00939 -4.47771,-4.47772 0,-2.46835 2.00938,-4.47773 4.47771,-4.47773 2.46834,0 4.47771,2.00938 4.47771,4.47773 0,2.46833 -2.00937,4.47772 -4.47771,4.47772 z m -1.39928,-1.95901 3.918,-2.51871 -3.918,-2.51873 z"
       id="path2-56-9-8"
       style="display:inline;fill:url(#linearGradient21);stroke-width:0.559713" />
    <path
       d="m -237.06098,274.60826 h 12.70633 v 1.49487 h -12.70633 c -0.82217,0 -1.49487,-0.6727 -1.49487,-1.49487 v -9.71661 h 1.49487 z m 14.94863,-9.71661 v 6.7269 c 0,0.82217 -0.67268,1.49484 -1.49485,1.49484 h -10.46406 c -0.82217,0 -1.49487,-0.67267 -1.49487,-1.49484 l 0.008,-8.22177 c 0,-0.82217 0.66522,-1.49487 1.48738,-1.49487 h 3.73717 l 1.49485,1.49487 h 5.23205 c 0.82217,0 1.49484,0.6727 1.49484,1.49487 z m -11.95891,6.7269 h 10.46406 v -6.7269 h -5.85239 l -1.49489,-1.49487 h -3.11678 z"
       id="path2-54-0-8-0-8-6"
       style="display:inline;fill:url(#linearGradient22);stroke-width:0.747431" />
    <path
       fill="none"
       stroke-linecap="round"
       stroke-linejoin="round"
       stroke-width="0.863547"
       d="m -225.06974,247.40239 -3.09096,-1.97751 a 0.86354654,0.86354654 0 0 0 -0.79014,0.009 l -3.04779,2.04499 a 0.43177325,0.43177325 0 0 0 -0.22965,0.38158 v 7.98239 a 0.43177325,0.43177325 0 0 0 0.63391,0.38158 l 2.63975,-1.72142 a 0.86354654,0.86354654 0 0 1 0.79608,-0.006 l 3.01863,1.96998 a 0.86354654,0.86354654 0 0 0 0.78987,-0.003 l 3.11498,-2.04929 a 0.43177325,0.43177325 0 0 0 0.23289,-0.3832 v -7.98025 a 0.43177325,0.43177325 0 0 0 -0.63389,-0.38158 l -2.64461,1.72331 a 0.86354654,0.86354654 0 0 1 -0.78907,0.009 z m 0.39749,0.0907 v 9.06724 m -3.88594,-11.22609 v 9.06723"
       id="path1-6-5-2"
       style="display:inline;fill:none;fill-opacity:1;stroke:url(#linearGradient19)" />
    <path
       style="display:inline;fill:none;fill-opacity:1;stroke:url(#linearGradient26);stroke-width:2.15727;stroke-miterlimit:4;stroke-dasharray:none"
       id="path1-5-8-0-9"
       d="m 67.052309,41.5333 20.959925,36.30365 -20.959921,36.30365 -41.919846,0 L 4.1725426,77.836954 25.132464,41.533302 Z"
       transform="matrix(0.4807794,0.27757812,-0.27757812,0.4807794,-228.72837,211.16998)" />
    <path
       style="display:inline;opacity:1;fill:none;fill-opacity:1;stroke:#ffdd00;stroke-width:0.79375;stroke-dasharray:none;stroke-dashoffset:0;stroke-opacity:1;marker-start:url(#Triangle-1-3_Fnone_S-ffdd00_reversed);marker-end:url(#Triangle-1-3_Fnone_S-ffdd00)"
       d="m -244.61377,275.24356 -36.15118,34.34702"
       id="path9-6-4" />
    <path
       style="display:inline;opacity:1;fill:none;fill-opacity:1;stroke:#ffdd00;stroke-width:0.79375;stroke-dasharray:none;stroke-dashoffset:0;stroke-opacity:1;marker-start:url(#Triangle-9-5-2_Fnone_S-ffdd00_reversed);marker-end:url(#Triangle-9-5-2_Fnone_S-ffdd00)"
       d="m -234.83733,281.01788 -13.08175,27.79644"
       id="path9-9-1-8" />
    <path
       style="display:inline;opacity:1;fill:none;fill-opacity:1;stroke:#ffdd00;stroke-width:0.79375;stroke-dasharray:none;stroke-dashoffset:0;stroke-opacity:1;marker-start:url(#Triangle-94-9-7_Fnone_S-ffdd00_reversed);marker-end:url(#Triangle-94-9-7_Fnone_S-ffdd00)"
       d="m -222.11184,280.74519 7.04503,28.5983"
       id="path9-3-5-7" />
    <path
       style="display:inline;opacity:1;fill:none;fill-opacity:1;stroke:#ffdd00;stroke-width:0.79375;stroke-dasharray:none;stroke-dashoffset:0;stroke-opacity:1;marker-start:url(#Triangle-0-7-6_Fnone_S-ffdd00_reversed);marker-end:url(#Triangle-0-7-6_Fnone_S-ffdd00)"
       d="m -210.9511,274.71508 29.75032,35.76125"
       id="path9-1-9-0" />
  </g>
</svg>
