<?xml version="1.0" encoding="UTF-8" standalone="no"?>
<!-- Created with Inkscape (http://www.inkscape.org/) -->

<svg
   width="600"
   height="600"
   viewBox="0 0 158.74999 158.75"
   version="1.1"
   id="svg1"
   xmlns:xlink="http://www.w3.org/1999/xlink"
   xmlns="http://www.w3.org/2000/svg"
   xmlns:svg="http://www.w3.org/2000/svg">
  <defs
     id="defs1">
    <linearGradient
       id="linearGradient10">
      <stop
         style="stop-color:#ffdd00;stop-opacity:1;"
         offset="0"
         id="stop9" />
      <stop
         style="stop-color:#9b0cee;stop-opacity:1;"
         offset="1"
         id="stop10" />
    </linearGradient>
    <linearGradient
       id="linearGradient8">
      <stop
         style="stop-color:#ffdd00;stop-opacity:1;"
         offset="0"
         id="stop7" />
      <stop
         style="stop-color:#9c0feb;stop-opacity:1;"
         offset="1"
         id="stop8" />
    </linearGradient>
    <linearGradient
       id="linearGradient6">
      <stop
         style="stop-color:#ffdd00;stop-opacity:1;"
         offset="0"
         id="stop5" />
      <stop
         style="stop-color:#9806f5;stop-opacity:1;"
         offset="1"
         id="stop6" />
    </linearGradient>
    <linearGradient
       id="linearGradient1">
      <stop
         style="stop-color:#ffdd00;stop-opacity:1;"
         offset="0"
         id="stop1" />
      <stop
         style="stop-color:#9a0af1;stop-opacity:1;"
         offset="1"
         id="stop2" />
    </linearGradient>
    <linearGradient
       id="linearGradient41">
      <stop
         style="stop-color:#ff0000;stop-opacity:1;"
         offset="0"
         id="stop41" />
      <stop
         style="stop-color:#ffdd00;stop-opacity:1;"
         offset="1"
         id="stop42" />
    </linearGradient>
    <linearGradient
       id="linearGradient40">
      <stop
         style="stop-color:#ff0000;stop-opacity:1;"
         offset="0"
         id="stop39" />
      <stop
         style="stop-color:#ffdd00;stop-opacity:1;"
         offset="1"
         id="stop40" />
    </linearGradient>
    <linearGradient
       id="linearGradient37">
      <stop
         style="stop-color:#ff0000;stop-opacity:1;"
         offset="0"
         id="stop37" />
      <stop
         style="stop-color:#ffdd00;stop-opacity:1;"
         offset="1"
         id="stop38" />
    </linearGradient>
    <marker
       style="overflow:visible"
       id="X"
       refX="0"
       refY="0"
       orient="auto"
       markerWidth="1"
       markerHeight="1"
       viewBox="0 0 1 1"
       preserveAspectRatio="xMidYMid">
      <path
         style="fill:none;stroke:context-stroke;stroke-width:1"
         d="M -3,3 3,-3 M 3,3 -3,-3"
         id="path24" />
    </marker>
    <marker
       style="overflow:visible"
       id="X_F-ffffff_S-ffdd00"
       refX="0"
       refY="0"
       orient="auto"
       markerWidth="1"
       markerHeight="1"
       viewBox="0 0 1 1"
       preserveAspectRatio="xMidYMid">
      <path
         style="fill:none;stroke:#ffdd00;stroke-width:1"
         d="M -3,3 3,-3 M 3,3 -3,-3"
         id="path1" />
    </marker>
    <marker
       style="overflow:visible"
       id="Triangle"
       refX="0"
       refY="0"
       orient="auto-start-reverse"
       markerWidth="1.001"
       markerHeight="1.001"
       viewBox="0 0 1 1"
       preserveAspectRatio="xMidYMid">
      <path
         transform="scale(0.5)"
         style="fill:context-stroke;fill-rule:evenodd;stroke:context-stroke;stroke-width:1pt"
         d="M 5.77,0 -2.88,5 V -5 Z"
         id="path135" />
    </marker>
    <marker
       style="overflow:visible"
       id="Triangle_Fnone_S-ffdd00"
       refX="0"
       refY="0"
       orient="auto-start-reverse"
       markerWidth="1.001"
       markerHeight="1.001"
       viewBox="0 0 1 1"
       preserveAspectRatio="xMidYMid">
      <path
         transform="scale(0.5)"
         style="fill:#ffdd00;fill-rule:evenodd;stroke:#ffdd00;stroke-width:1pt"
         d="M 5.77,0 -2.88,5 V -5 Z"
         id="path2" />
    </marker>
    <marker
       style="overflow:visible"
       id="Triangle_Fnone_S-ffdd00_reversed"
       refX="0"
       refY="0"
       orient="auto"
       markerWidth="1.001"
       markerHeight="1.001"
       viewBox="0 0 1 1"
       preserveAspectRatio="xMidYMid">
      <g
         transform="rotate(180,0,0)"
         id="g15">
        <path
           transform="scale(0.5)"
           style="fill:#ffdd00;fill-rule:evenodd;stroke:#ffdd00;stroke-width:1pt"
           d="M 5.77,0 -2.88,5 V -5 Z"
           id="path15" />
      </g>
    </marker>
    <marker
       style="overflow:visible"
       id="Triangle-9"
       refX="0"
       refY="0"
       orient="auto-start-reverse"
       markerWidth="1.001"
       markerHeight="1.001"
       viewBox="0 0 1 1"
       preserveAspectRatio="xMidYMid">
      <path
         transform="scale(0.5)"
         style="fill:context-stroke;fill-rule:evenodd;stroke:context-stroke;stroke-width:1pt"
         d="M 5.77,0 -2.88,5 V -5 Z"
         id="path135-7" />
    </marker>
    <marker
       style="overflow:visible"
       id="Triangle-9_Fnone_S-ffdd00"
       refX="0"
       refY="0"
       orient="auto-start-reverse"
       markerWidth="1.001"
       markerHeight="1.001"
       viewBox="0 0 1 1"
       preserveAspectRatio="xMidYMid">
      <path
         transform="scale(0.5)"
         style="fill:#ffdd00;fill-rule:evenodd;stroke:#ffdd00;stroke-width:1pt"
         d="M 5.77,0 -2.88,5 V -5 Z"
         id="path3" />
    </marker>
    <marker
       style="overflow:visible"
       id="Triangle-9_Fnone_S-ffdd00_reversed"
       refX="0"
       refY="0"
       orient="auto"
       markerWidth="1.001"
       markerHeight="1.001"
       viewBox="0 0 1 1"
       preserveAspectRatio="xMidYMid">
      <g
         transform="rotate(180,0,0)"
         id="g16">
        <path
           transform="scale(0.5)"
           style="fill:#ffdd00;fill-rule:evenodd;stroke:#ffdd00;stroke-width:1pt"
           d="M 5.77,0 -2.88,5 V -5 Z"
           id="path16" />
      </g>
    </marker>
    <marker
       style="overflow:visible"
       id="Triangle-94"
       refX="0"
       refY="0"
       orient="auto-start-reverse"
       markerWidth="1.001"
       markerHeight="1.001"
       viewBox="0 0 1 1"
       preserveAspectRatio="xMidYMid">
      <path
         transform="scale(0.5)"
         style="fill:context-stroke;fill-rule:evenodd;stroke:context-stroke;stroke-width:1pt"
         d="M 5.77,0 -2.88,5 V -5 Z"
         id="path135-78" />
    </marker>
    <marker
       style="overflow:visible"
       id="Triangle-94_Fnone_S-ffdd00"
       refX="0"
       refY="0"
       orient="auto-start-reverse"
       markerWidth="1.001"
       markerHeight="1.001"
       viewBox="0 0 1 1"
       preserveAspectRatio="xMidYMid">
      <path
         transform="scale(0.5)"
         style="fill:#ffdd00;fill-rule:evenodd;stroke:#ffdd00;stroke-width:1pt"
         d="M 5.77,0 -2.88,5 V -5 Z"
         id="path4" />
    </marker>
    <marker
       style="overflow:visible"
       id="Triangle-94_Fnone_S-ffdd00_reversed"
       refX="0"
       refY="0"
       orient="auto"
       markerWidth="1.001"
       markerHeight="1.001"
       viewBox="0 0 1 1"
       preserveAspectRatio="xMidYMid">
      <g
         transform="rotate(180,0,0)"
         id="g17">
        <path
           transform="scale(0.5)"
           style="fill:#ffdd00;fill-rule:evenodd;stroke:#ffdd00;stroke-width:1pt"
           d="M 5.77,0 -2.88,5 V -5 Z"
           id="path17" />
      </g>
    </marker>
    <marker
       style="overflow:visible"
       id="Triangle-0"
       refX="0"
       refY="0"
       orient="auto-start-reverse"
       markerWidth="1.001"
       markerHeight="1.001"
       viewBox="0 0 1 1"
       preserveAspectRatio="xMidYMid">
      <path
         transform="scale(0.5)"
         style="fill:context-stroke;fill-rule:evenodd;stroke:context-stroke;stroke-width:1pt"
         d="M 5.77,0 -2.88,5 V -5 Z"
         id="path135-6" />
    </marker>
    <marker
       style="overflow:visible"
       id="Triangle-0_Fnone_S-ffdd00"
       refX="0"
       refY="0"
       orient="auto-start-reverse"
       markerWidth="1.001"
       markerHeight="1.001"
       viewBox="0 0 1 1"
       preserveAspectRatio="xMidYMid">
      <path
         transform="scale(0.5)"
         style="fill:#ffdd00;fill-rule:evenodd;stroke:#ffdd00;stroke-width:1pt"
         d="M 5.77,0 -2.88,5 V -5 Z"
         id="path5" />
    </marker>
    <marker
       style="overflow:visible"
       id="Triangle-0_Fnone_S-ffdd00_reversed"
       refX="0"
       refY="0"
       orient="auto"
       markerWidth="1.001"
       markerHeight="1.001"
       viewBox="0 0 1 1"
       preserveAspectRatio="xMidYMid">
      <g
         transform="rotate(180,0,0)"
         id="g18">
        <path
           transform="scale(0.5)"
           style="fill:#ffdd00;fill-rule:evenodd;stroke:#ffdd00;stroke-width:1pt"
           d="M 5.77,0 -2.88,5 V -5 Z"
           id="path18" />
      </g>
    </marker>
    <marker
       style="overflow:visible"
       id="Triangle-5"
       refX="0"
       refY="0"
       orient="auto-start-reverse"
       markerWidth="1.001"
       markerHeight="1.001"
       viewBox="0 0 1 1"
       preserveAspectRatio="xMidYMid">
      <path
         transform="scale(0.5)"
         style="fill:context-stroke;fill-rule:evenodd;stroke:context-stroke;stroke-width:1pt"
         d="M 5.77,0 -2.88,5 V -5 Z"
         id="path135-0" />
    </marker>
    <marker
       style="overflow:visible"
       id="Triangle-5_F-ffffff_S-ffdd00"
       refX="0"
       refY="0"
       orient="auto-start-reverse"
       markerWidth="1.001"
       markerHeight="1.001"
       viewBox="0 0 1 1"
       preserveAspectRatio="xMidYMid">
      <path
         transform="scale(0.5)"
         style="fill:#ffdd00;fill-rule:evenodd;stroke:#ffdd00;stroke-width:1pt"
         d="M 5.77,0 -2.88,5 V -5 Z"
         id="path6" />
    </marker>
    <marker
       style="overflow:visible"
       id="Triangle-5_F-ffffff_S-ffdd00_reversed"
       refX="0"
       refY="0"
       orient="auto"
       markerWidth="1.001"
       markerHeight="1.001"
       viewBox="0 0 1 1"
       preserveAspectRatio="xMidYMid">
      <g
         transform="rotate(180,0,0)"
         id="g12">
        <path
           transform="scale(0.5)"
           style="fill:#ffdd00;fill-rule:evenodd;stroke:#ffdd00;stroke-width:1pt"
           d="M 5.77,0 -2.88,5 V -5 Z"
           id="path12" />
      </g>
    </marker>
    <marker
       style="overflow:visible"
       id="Triangle-5-2"
       refX="0"
       refY="0"
       orient="auto-start-reverse"
       markerWidth="1.001"
       markerHeight="1.001"
       viewBox="0 0 1 1"
       preserveAspectRatio="xMidYMid">
      <path
         transform="scale(0.5)"
         style="fill:context-stroke;fill-rule:evenodd;stroke:context-stroke;stroke-width:1pt"
         d="M 5.77,0 -2.88,5 V -5 Z"
         id="path135-0-2" />
    </marker>
    <marker
       style="overflow:visible"
       id="Triangle-5-2_F-ffffff_S-ffdd00"
       refX="0"
       refY="0"
       orient="auto-start-reverse"
       markerWidth="1.001"
       markerHeight="1.001"
       viewBox="0 0 1 1"
       preserveAspectRatio="xMidYMid">
      <path
         transform="scale(0.5)"
         style="fill:#ffdd00;fill-rule:evenodd;stroke:#ffdd00;stroke-width:1pt"
         d="M 5.77,0 -2.88,5 V -5 Z"
         id="path7" />
    </marker>
    <marker
       style="overflow:visible"
       id="Triangle-5-2_F-ffffff_S-ffdd00_reversed"
       refX="0"
       refY="0"
       orient="auto"
       markerWidth="1.001"
       markerHeight="1.001"
       viewBox="0 0 1 1"
       preserveAspectRatio="xMidYMid">
      <g
         transform="rotate(180,0,0)"
         id="g13">
        <path
           transform="scale(0.5)"
           style="fill:#ffdd00;fill-rule:evenodd;stroke:#ffdd00;stroke-width:1pt"
           d="M 5.77,0 -2.88,5 V -5 Z"
           id="path13" />
      </g>
    </marker>
    <marker
       style="overflow:visible"
       id="X-6"
       refX="0"
       refY="0"
       orient="auto"
       markerWidth="1"
       markerHeight="1"
       viewBox="0 0 1 1"
       preserveAspectRatio="xMidYMid">
      <path
         style="fill:none;stroke:context-stroke;stroke-width:1"
         d="M -3,3 3,-3 M 3,3 -3,-3"
         id="path24-1" />
    </marker>
    <marker
       style="overflow:visible"
       id="X-6_F-ffffff_S-ffdd00"
       refX="0"
       refY="0"
       orient="auto"
       markerWidth="1"
       markerHeight="1"
       viewBox="0 0 1 1"
       preserveAspectRatio="xMidYMid">
      <path
         style="fill:none;stroke:#ffdd00;stroke-width:1"
         d="M -3,3 3,-3 M 3,3 -3,-3"
         id="path8" />
    </marker>
    <marker
       style="overflow:visible"
       id="Triangle-5-2-6"
       refX="0"
       refY="0"
       orient="auto-start-reverse"
       markerWidth="1.001"
       markerHeight="1.001"
       viewBox="0 0 1 1"
       preserveAspectRatio="xMidYMid">
      <path
         transform="scale(0.5)"
         style="fill:context-stroke;fill-rule:evenodd;stroke:context-stroke;stroke-width:1pt"
         d="M 5.77,0 -2.88,5 V -5 Z"
         id="path135-0-2-7" />
    </marker>
    <marker
       style="overflow:visible"
       id="Triangle-5-2-6_F-ffffff_S-ffdd00"
       refX="0"
       refY="0"
       orient="auto-start-reverse"
       markerWidth="1.001"
       markerHeight="1.001"
       viewBox="0 0 1 1"
       preserveAspectRatio="xMidYMid">
      <path
         transform="scale(0.5)"
         style="fill:#ffdd00;fill-rule:evenodd;stroke:#ffdd00;stroke-width:1pt"
         d="M 5.77,0 -2.88,5 V -5 Z"
         id="path10" />
    </marker>
    <marker
       style="overflow:visible"
       id="Triangle-5-2-6_F-ffffff_S-ffdd00_reversed"
       refX="0"
       refY="0"
       orient="auto"
       markerWidth="1.001"
       markerHeight="1.001"
       viewBox="0 0 1 1"
       preserveAspectRatio="xMidYMid">
      <g
         transform="rotate(180,0,0)"
         id="g14">
        <path
           transform="scale(0.5)"
           style="fill:#ffdd00;fill-rule:evenodd;stroke:#ffdd00;stroke-width:1pt"
           d="M 5.77,0 -2.88,5 V -5 Z"
           id="path14" />
      </g>
    </marker>
    <marker
       style="overflow:visible"
       id="X-6-3"
       refX="0"
       refY="0"
       orient="auto"
       markerWidth="1"
       markerHeight="1"
       viewBox="0 0 1 1"
       preserveAspectRatio="xMidYMid">
      <path
         style="fill:none;stroke:context-stroke;stroke-width:1"
         d="M -3,3 3,-3 M 3,3 -3,-3"
         id="path24-1-6" />
    </marker>
    <marker
       style="overflow:visible"
       id="X-6-3_F-ffffff_S-ffdd00"
       refX="0"
       refY="0"
       orient="auto"
       markerWidth="1"
       markerHeight="1"
       viewBox="0 0 1 1"
       preserveAspectRatio="xMidYMid">
      <path
         style="fill:none;stroke:#ffdd00;stroke-width:1"
         d="M -3,3 3,-3 M 3,3 -3,-3"
         id="path11" />
    </marker>
    <linearGradient
       xlink:href="#linearGradient37"
       id="linearGradient38"
       x1="-245.96869"
       y1="90.288246"
       x2="-236.83311"
       y2="90.288246"
       gradientUnits="userSpaceOnUse"
       gradientTransform="translate(0,-23.283331)" />
    <linearGradient
       xlink:href="#linearGradient40"
       id="linearGradient39"
       x1="-232.42812"
       y1="90.288254"
       x2="-223.96146"
       y2="90.288254"
       gradientUnits="userSpaceOnUse"
       gradientTransform="translate(0,-23.283331)" />
    <linearGradient
       xlink:href="#linearGradient41"
       id="linearGradient42"
       x1="-221.29677"
       y1="90.096123"
       x2="-213.62975"
       y2="90.096123"
       gradientUnits="userSpaceOnUse"
       gradientTransform="translate(0,-23.283331)" />
    <linearGradient
       xlink:href="#linearGradient1"
       id="linearGradient2"
       x1="-292.47391"
       y1="162.23979"
       x2="-280.45233"
       y2="162.23979"
       gradientUnits="userSpaceOnUse"
       gradientTransform="translate(0,-23.283331)" />
    <linearGradient
       xlink:href="#linearGradient10"
       id="linearGradient3"
       x1="-255.81348"
       y1="162.23979"
       x2="-243.79189"
       y2="162.23979"
       gradientUnits="userSpaceOnUse"
       gradientTransform="translate(0,-23.283331)" />
    <linearGradient
       xlink:href="#linearGradient8"
       id="linearGradient4"
       x1="-219.29379"
       y1="162.23979"
       x2="-207.27222"
       y2="162.23979"
       gradientUnits="userSpaceOnUse"
       gradientTransform="translate(0,-23.283331)" />
    <linearGradient
       xlink:href="#linearGradient6"
       id="linearGradient5"
       x1="-182.77411"
       y1="162.23979"
       x2="-170.75253"
       y2="162.23979"
       gradientUnits="userSpaceOnUse"
       gradientTransform="translate(0,-23.283331)" />
  </defs>
  <g
     id="layer1"
     style="display:inline;opacity:1"
     transform="translate(309.70884,-22.715629)">
    <rect
       style="display:inline;fill:none;fill-opacity:1;stroke:#37ff00;stroke-width:0.895581;stroke-linecap:round;stroke-linejoin:round;stroke-dasharray:none;stroke-dashoffset:0;stroke-opacity:1;paint-order:markers fill stroke"
       id="rect16-4"
       width="142.98148"
       height="45.421841"
       x="-301.82462"
       y="106.25406" />
    <path
       d="m -246.09631,112.66498 -7.41275,-0.008 c -0.81542,0 -1.48256,0.66713 -1.48256,1.48254 v 13.34296 c 0,0.81542 0.66714,1.48256 1.48256,1.48256 h 7.41275 c 0.8154,0 1.48256,-0.66714 1.48256,-1.48256 v -13.34296 c 0,-0.81541 -0.66716,-1.47514 -1.48256,-1.47514 z m 0,13.33553 h -7.41275 v -10.37787 h 7.41275 z"
       id="path2-6"
       style="fill:#ffffff;fill-opacity:1;stroke-width:0.741275" />
    <path
       fill="none"
       d="m -203.34377,46.552764 h 6.35 v 6.34999 h -6.35 z"
       id="path1-7"
       style="stroke-width:0.264583" />
    <path
       d="m -278.62331,126.10279 c 0.97015,0 1.7551,-0.79375 1.7551,-1.76394 l 0.0105,-8.81962 c 0,-0.97016 -0.79374,-1.76394 -1.76393,-1.76394 h -14.11139 c -0.97017,0 -1.76395,0.79378 -1.76395,1.76394 v 8.81962 c 0,0.97019 0.79378,1.76394 1.76395,1.76394 h -3.52789 v 1.76394 h 21.16713 v -1.76394 z m -14.1114,-10.58356 h 14.1114 v 8.81962 h -14.1114 z"
       id="path2-5"
       style="fill:#ffffff;fill-opacity:1;stroke-width:0.881965" />
    <path
       d="m -184.79392,118.34006 v 5.55964 a 0.61773791,0.61773791 0 0 0 0.61775,0.61775 h 6.17737 a 0.61773791,0.61773791 0 0 1 0,1.23547 h -1.23548 v 1.23548 h 1.23548 a 0.61773802,0.61773802 0 0 1 0,1.23547 h -3.70642 a 0.61773802,0.61773802 0 0 1 0,-1.23547 h 1.23547 v -1.23548 h -3.70642 a 1.8532137,1.8532137 0 0 1 -1.85322,-1.85322 v -5.55964 a 1.8532137,1.8532137 0 0 1 1.85322,-1.85321 h 6.17737 a 0.61773791,0.61773791 0 0 1 0,1.23547 h -6.17737 a 0.61773791,0.61773791 0 0 0 -0.61775,0.61774 z m 14.20798,-2.47095 h -2.47095 a 0.61774,0.61774 0 0 0 0,1.23548 h 2.47095 a 0.61774,0.61774 0 0 0 0,-1.23548 z m 0,2.47095 h -2.47095 a 0.61774,0.61774 0 0 0 0,1.23548 h 2.47095 a 0.61774,0.61774 0 0 0 0,-1.23548 z m 3.08869,-3.70642 v 12.35476 a 1.2354758,1.2354758 0 0 1 -1.23548,1.23547 h -6.17738 a 1.2354758,1.2354758 0 0 1 -1.23548,-1.23547 v -12.35476 a 1.2354758,1.2354758 0 0 1 1.23548,-1.23548 h 6.17738 a 1.2354758,1.2354758 0 0 1 1.23548,1.23548 z m -1.23548,12.35476 v -12.35476 h -6.17738 v 12.35476 z m -3.08869,-3.0887 a 0.92660689,0.92660689 0 1 0 0.92661,0.92661 0.92660689,0.92660689 0 0 0 -0.92661,-0.92661 z"
       id="path1-0"
       style="fill:#ffffff;fill-opacity:1;stroke-width:0.077217" />
    <path
       d="m -211.87749,56.861124 c -1.55447,-7.65898 -8.21443,-13.43126 -16.31728,-13.43126 -6.43786,0 -11.98803,3.66282 -14.76284,8.9911 -6.66017,0.66622 -11.87747,6.32684 -11.87747,13.20914 0,7.32563 5.9945,13.320142 13.32016,13.320142 h 28.86032 c 6.10505,0 11.10012,-4.995052 11.10012,-11.100232 0,-5.88273 -4.55071,-10.656 -10.32301,-10.98889 z m -0.77711,17.64907 h -28.86032 c -4.88451,0 -8.8801,-3.9956 -8.8801,-8.88009 0,-4.88405 3.99559,-8.8801 8.8801,-8.8801 h 1.55445 c 1.4428,-5.10605 6.10507,-8.88009 11.7657,-8.88009 6.77061,0 12.21011,5.43906 12.21011,12.21013 v 1.11001 h 3.33004 c 3.66282,0 6.66007,2.99737 6.66007,6.66007 0,3.66282 -2.99725,6.66007 -6.66005,6.66007 z"
       id="path1-1"
       style="fill:#ff0000;fill-opacity:1;stroke-width:0.111125;stroke-dasharray:none" />
    <path
       d="m -207.28937,115.94638 h -5.34703 l 2.31773,-2.31776 -0.49312,-0.50019 -2.81796,2.81795 -2.81795,-2.81795 -0.50017,0.50019 2.32479,2.31776 h -5.34707 a 1.4089751,1.4089751 0 0 0 -1.40895,1.40897 v 8.45386 c 0,0.77493 0.63403,1.40897 1.40895,1.40897 h 12.68078 c 0.77494,0 1.40899,-0.63404 1.40899,-1.40897 v -8.45386 a 1.4089751,1.4089751 0 0 0 -1.40899,-1.40897 z m 0,9.86283 h -12.68078 v -8.45386 h 12.68078 z m -8.45384,-7.04488 v 5.6359 l 4.93142,-2.81794 z"
       id="path2-2"
       style="display:inline;opacity:1;fill:#ffffff;fill-opacity:1;stroke-width:0.704487" />
    <path
       d="m -236.83312,64.264254 c 0,-0.50246 -0.4111,-0.91356 -0.91355,-0.91356 h -7.30846 c -0.50245,0 -0.91356,0.4111 -0.91356,0.91356 v 5.48132 c 0,0.50245 0.41111,0.91356 0.91356,0.91356 h 7.30844 c 0.50247,0 0.91356,-0.41111 0.91356,-0.91356 z m -0.91355,0 -3.65423,2.28388 -3.65423,-2.28388 z m 0,5.48132 h -7.30846 v -4.56777 l 3.65423,2.28388 3.65421,-2.28388 z"
       id="path2-7"
       style="display:inline;opacity:1;fill:url(#linearGradient38);fill-opacity:1;stroke-width:0.456777" />
    <path
       style="display:inline;opacity:1;fill:#ffffff;fill-opacity:1;stroke:#ffdd00;stroke-width:0.79375;stroke-linecap:round;stroke-linejoin:round;stroke-dasharray:none;stroke-dashoffset:0;stroke-opacity:1;marker-start:url(#Triangle-5_F-ffffff_S-ffdd00_reversed);marker-mid:url(#X_F-ffffff_S-ffdd00);marker-end:url(#Triangle-5_F-ffffff_S-ffdd00);paint-order:markers fill stroke"
       d="m -260.15332,138.95643 h -7.50551 -8.31289"
       id="path9-7" />
    <path
       style="display:inline;opacity:1;fill:#ffffff;fill-opacity:1;stroke:#ffdd00;stroke-width:0.79375;stroke-linecap:round;stroke-linejoin:round;stroke-dasharray:none;stroke-dashoffset:0;stroke-opacity:1;marker-start:url(#Triangle-5-2_F-ffffff_S-ffdd00_reversed);marker-mid:url(#X-6_F-ffffff_S-ffdd00);marker-end:url(#Triangle-5-2_F-ffffff_S-ffdd00);paint-order:markers fill stroke"
       d="m -223.63364,138.95643 h -7.50551 -8.31289"
       id="path9-7-9" />
    <path
       style="display:inline;opacity:1;fill:#ffffff;fill-opacity:1;stroke:#ffdd00;stroke-width:0.79375;stroke-linecap:round;stroke-linejoin:round;stroke-dasharray:none;stroke-dashoffset:0;stroke-opacity:1;marker-start:url(#Triangle-5-2-6_F-ffffff_S-ffdd00_reversed);marker-mid:url(#X-6-3_F-ffffff_S-ffdd00);marker-end:url(#Triangle-5-2-6_F-ffffff_S-ffdd00);paint-order:markers fill stroke"
       d="m -187.11396,138.95643 h -7.50551 -8.31289"
       id="path9-7-9-4" />
    <path
       d="m -228.19478,62.771584 c -2.3368,0 -4.23334,1.89653 -4.23334,4.23333 0,2.3368 1.89654,4.23334 4.23334,4.23334 2.3368,0 4.23333,-1.89654 4.23333,-4.23334 0,-2.3368 -1.89653,-4.23333 -4.23333,-4.23333 z m 0,7.62 c -1.86689,0 -3.38667,-1.51977 -3.38667,-3.38667 0,-1.8669 1.51978,-3.38667 3.38667,-3.38667 1.8669,0 3.38666,1.51977 3.38666,3.38667 0,1.8669 -1.51976,3.38667 -3.38666,3.38667 z m -1.05833,-1.48167 2.96333,-1.905 -2.96333,-1.905 z"
       id="path2-56"
       style="fill:url(#linearGradient39);fill-opacity:1;stroke-width:0.423333" />
    <path
       d="m -228.19478,49.727764 c -2.81091,0 -5.20211,1.72299 -6.1851,4.16941 0.98299,2.44643 3.37419,4.16942 6.1851,4.16942 2.8109,0 5.20211,-1.72299 6.1851,-4.16942 -0.98299,-2.44642 -3.3742,-4.16941 -6.1851,-4.16941 z m 0,6.94995 c -1.54628,0 -2.81091,-1.25083 -2.81091,-2.78054 0,-1.5297 1.26463,-2.78053 2.81091,-2.78053 1.54627,0 2.8109,1.25083 2.8109,2.78053 0,1.52971 -1.26463,2.78054 -2.8109,2.78054 z m 0,-4.4483 c -0.92776,0 -1.6871,0.75104 -1.6871,1.66776 0,0.91673 0.75934,1.66777 1.6871,1.66777 0.92776,0 1.6871,-0.75104 1.6871,-1.66777 0,-0.91672 -0.75934,-1.66776 -1.6871,-1.66776 z"
       id="path1-4"
       style="fill:#ff0000;fill-opacity:1;stroke-width:0.027612" />
    <path
       d="m -291.38108,143.05452 h 9.28899 v 1.09283 h -9.28899 c -0.60105,0 -1.09283,-0.49178 -1.09283,-1.09283 v -7.10335 h 1.09283 z m 10.92823,-7.10335 v 4.91771 c 0,0.60105 -0.49176,1.09281 -1.09281,1.09281 h -7.64978 c -0.60105,0 -1.09283,-0.49176 -1.09283,-1.09281 l 0.006,-6.01054 c 0,-0.60105 0.48631,-1.09283 1.08735,-1.09283 h 2.73207 l 1.09281,1.09283 h 3.8249 c 0.60105,0 1.09281,0.49178 1.09281,1.09283 z m -8.74259,4.91771 h 7.64978 v -4.91771 h -4.27841 l -1.09284,-1.09283 h -2.27853 z"
       id="path2-54"
       style="fill:url(#linearGradient2);stroke-width:0.546411" />
    <path
       d="m -254.72065,143.05452 h 9.289 v 1.09283 h -9.289 c -0.60104,0 -1.09282,-0.49178 -1.09282,-1.09283 v -7.10335 h 1.09282 z m 10.92824,-7.10335 v 4.91771 c 0,0.60105 -0.49176,1.09281 -1.09281,1.09281 h -7.64978 c -0.60105,0 -1.09283,-0.49176 -1.09283,-1.09281 l 0.006,-6.01054 c 0,-0.60105 0.48631,-1.09283 1.08735,-1.09283 h 2.73207 l 1.09281,1.09283 h 3.8249 c 0.60105,0 1.09281,0.49178 1.09281,1.09283 z m -8.74259,4.91771 h 7.64977 v -4.91771 h -4.27841 l -1.09284,-1.09283 h -2.27852 z"
       id="path2-54-0"
       style="display:inline;fill:url(#linearGradient3);stroke-width:0.546411" />
    <path
       d="m -218.20096,143.05452 h 9.28899 v 1.09283 h -9.28899 c -0.60105,0 -1.09283,-0.49178 -1.09283,-1.09283 v -7.10335 h 1.09283 z m 10.92823,-7.10335 v 4.91771 c 0,0.60105 -0.49176,1.09281 -1.09281,1.09281 h -7.64978 c -0.60105,0 -1.09283,-0.49176 -1.09283,-1.09281 l 0.006,-6.01054 c 0,-0.60105 0.48631,-1.09283 1.08735,-1.09283 h 2.73207 l 1.09281,1.09283 h 3.8249 c 0.60105,0 1.09281,0.49178 1.09281,1.09283 z m -8.74259,4.91771 h 7.64978 v -4.91771 h -4.27841 l -1.09284,-1.09283 h -2.27853 z"
       id="path2-54-0-8"
       style="display:inline;fill:url(#linearGradient4);stroke-width:0.546411" />
    <path
       d="m -181.68128,143.05452 h 9.28899 v 1.09283 h -9.28899 c -0.60105,0 -1.09283,-0.49178 -1.09283,-1.09283 v -7.10335 h 1.09283 z m 10.92823,-7.10335 v 4.91771 c 0,0.60105 -0.49176,1.09281 -1.09281,1.09281 h -7.64978 c -0.60105,0 -1.09283,-0.49176 -1.09283,-1.09281 l 0.006,-6.01054 c 0,-0.60105 0.48631,-1.09283 1.08735,-1.09283 h 2.73207 l 1.09281,1.09283 h 3.8249 c 0.60105,0 1.09281,0.49178 1.09281,1.09283 z m -8.74259,4.91771 h 7.64978 v -4.91771 h -4.27841 l -1.09284,-1.09283 h -2.27853 z"
       id="path2-54-0-9"
       style="display:inline;fill:url(#linearGradient5);stroke-width:0.546411" />
    <path
       fill="none"
       stroke-linecap="round"
       stroke-linejoin="round"
       stroke-width="0.547645"
       d="m -216.48314,64.564544 -1.96023,-1.2541 a 0.5476446,0.5476446 0 0 0 -0.50109,0.006 l -1.93285,1.29689 a 0.27382229,0.27382229 0 0 0 -0.14564,0.24199 v 5.06228 a 0.27382229,0.27382229 0 0 0 0.40201,0.24199 l 1.67408,-1.09169 a 0.5476446,0.5476446 0 0 1 0.50486,-0.004 l 1.91436,1.24932 a 0.5476446,0.5476446 0 0 0 0.50092,-0.002 l 1.97546,-1.29962 a 0.27382229,0.27382229 0 0 0 0.14769,-0.24302 v -5.06092 a 0.27382229,0.27382229 0 0 0 -0.402,-0.24199 l -1.67716,1.09289 a 0.5476446,0.5476446 0 0 1 -0.50041,0.006 z m 0.25208,0.0575 v 5.75027 m -2.46439,-7.11937 v 5.75026"
       id="path1-6"
       style="fill:none;fill-opacity:1;stroke:url(#linearGradient42);stroke-opacity:1" />
    <path
       style="display:inline;opacity:1;fill:none;fill-opacity:1;stroke:#ffdd00;stroke-width:0.79375;stroke-dasharray:none;stroke-dashoffset:0;stroke-opacity:1;marker-start:url(#Triangle_Fnone_S-ffdd00_reversed);marker-end:url(#Triangle_Fnone_S-ffdd00)"
       d="m -251.90841,74.543756 -29.58411,35.657054"
       id="path9" />
    <path
       style="display:inline;opacity:1;fill:none;fill-opacity:1;stroke:#ffdd00;stroke-width:0.79375;stroke-dasharray:none;stroke-dashoffset:0;stroke-opacity:1;marker-start:url(#Triangle-9_Fnone_S-ffdd00_reversed);marker-end:url(#Triangle-9_Fnone_S-ffdd00)"
       d="m -241.51492,78.950246 -6.86714,30.395824"
       id="path9-9" />
    <path
       style="display:inline;opacity:1;fill:none;fill-opacity:1;stroke:#ffdd00;stroke-width:0.79375;stroke-dasharray:none;stroke-dashoffset:0;stroke-opacity:1;marker-start:url(#Triangle-94_Fnone_S-ffdd00_reversed);marker-end:url(#Triangle-94_Fnone_S-ffdd00)"
       d="m -220.1272,78.807289 5.82983,31.699011"
       id="path9-3" />
    <path
       style="display:inline;opacity:1;fill:none;fill-opacity:1;stroke:#ffdd00;stroke-width:0.79375;stroke-dasharray:none;stroke-dashoffset:0;stroke-opacity:1;marker-start:url(#Triangle-0_Fnone_S-ffdd00_reversed);marker-end:url(#Triangle-0_Fnone_S-ffdd00)"
       d="m -207.27221,76.879528 24.4981,35.218662"
       id="path9-1" />
  </g>
</svg>
