<svg width="101" height="103" viewBox="0 0 101 103" fill="none" xmlns="http://www.w3.org/2000/svg">
<path d="M92.3089 76.1033L50.342 100.575L8.37519 76.1033L8.3752 27.1336L50.342 2.66173L92.3089 27.1336L92.3089 76.1033Z" stroke="#0199FF" stroke-width="3"/>
<path d="M55.2674 64.7526V62.2899C55.2674 59.3142 58.5038 56.4996 60.6032 54.4915C63.5625 51.6625 65.1181 47.8617 65.1181 43.4094C65.1181 35.2005 58.5787 28.6334 50.342 28.6334C48.4001 28.6279 46.4762 29.0064 44.6811 29.7471C42.8859 30.4877 41.2549 31.5759 39.8817 32.9491C38.5085 34.3223 37.4204 35.9533 36.6797 37.7485C35.9391 39.5436 35.5606 41.4675 35.566 43.4094C35.566 47.7027 37.1883 51.761 40.0809 54.4915C42.169 56.4626 45.4167 59.2834 45.4167 62.2899V64.7526M47.0585 74.6033H53.6256M45.4167 69.678H55.2674M50.342 64.7526V51.6183" stroke="#0199FF" stroke-width="3.28357" stroke-linecap="round" stroke-linejoin="round"/>
<path d="M54.2413 49.9766C54.2413 49.9766 52.0342 51.6183 50.3421 51.6183C48.65 51.6183 46.4429 49.9766 46.4429 49.9766" stroke="#0199FF" stroke-width="3.28357" stroke-linecap="round" stroke-linejoin="round"/>
</svg>
