<svg width="101" height="103" viewBox="0 0 101 103" fill="none" xmlns="http://www.w3.org/2000/svg">
<path d="M92.6931 75.925L50.7263 100.397L8.75947 75.925L8.75947 26.9554L50.7263 2.48351L92.6931 26.9554L92.6931 75.925Z" stroke="#0199FF" stroke-width="3"/>
<path d="M44.575 51.4402C45.9032 51.4402 46.98 50.3634 46.98 49.0352C46.98 47.7069 45.9032 46.6301 44.575 46.6301C43.2467 46.6301 42.1699 47.7069 42.1699 49.0352C42.1699 50.3634 43.2467 51.4402 44.575 51.4402Z" fill="#0199FF"/>
<path d="M51.795 64.2671C47.2435 64.2671 43.4155 61.3079 42.2039 57.2695C42.17 57.1493 42.1647 57.0229 42.1883 56.9002C42.2119 56.7776 42.2639 56.6622 42.34 56.5633C42.4161 56.4643 42.5143 56.3844 42.6267 56.3301C42.7391 56.2758 42.8627 56.2485 42.9876 56.2503H60.5935C60.7183 56.2485 60.8419 56.2758 60.9543 56.3301C61.0668 56.3844 61.1649 56.4643 61.2411 56.5633C61.3172 56.6622 61.3691 56.7776 61.3927 56.9002C61.4164 57.0229 61.411 57.1493 61.3771 57.2695C60.1756 61.3079 56.3466 64.2671 51.795 64.2671Z" fill="#0199FF"/>
<path d="M59.0051 51.4402C60.3334 51.4402 61.4102 50.3634 61.4102 49.0352C61.4102 47.7069 60.3334 46.6301 59.0051 46.6301C57.6769 46.6301 56.6001 47.7069 56.6001 49.0352C56.6001 50.3634 57.6769 51.4402 59.0051 51.4402Z" fill="#0199FF"/>
<path d="M51.79 72.2839C63.3017 72.2839 72.6337 62.9518 72.6337 51.4402C72.6337 39.9285 63.3017 30.5964 51.79 30.5964C40.2783 30.5964 30.9463 39.9285 30.9463 51.4402C30.9463 62.9518 40.2783 72.2839 51.79 72.2839Z" stroke="#0199FF" stroke-width="3.20673" stroke-miterlimit="10"/>
</svg>
