<svg width="101" height="110" viewBox="0 0 101 110" fill="none" xmlns="http://www.w3.org/2000/svg">
<g filter="url(#filter0_d_75_721)">
<path d="M92.4431 75.3755L50.4763 99.8473L8.50947 75.3755L8.50947 26.4058L50.4763 1.93395L92.4431 26.4058L92.4431 75.3755Z" stroke="#0199FF" stroke-width="3" shape-rendering="crispEdges"/>
</g>
<path d="M73.317 28.4524C73.2982 28.3613 73.2537 28.2775 73.1888 28.2109C73.1239 28.1442 73.0414 28.0975 72.9508 28.0762C66.9159 26.6002 52.9749 31.8594 45.4141 39.4147C44.0665 40.7512 42.8378 42.2023 41.7418 43.7517C39.4113 43.5408 37.0808 43.7184 35.0965 44.584C29.4933 47.0477 27.863 53.4822 27.408 56.2444C27.3834 56.3957 27.3939 56.5507 27.4388 56.6974C27.4837 56.844 27.5617 56.9783 27.6669 57.0899C27.7721 57.2015 27.9015 57.2874 28.0452 57.341C28.1889 57.3945 28.343 57.4142 28.4956 57.3986L37.4925 56.4109C37.4987 57.0895 37.5395 57.7673 37.6146 58.4417C37.6615 58.9079 37.8695 59.3431 38.2028 59.6725L41.6863 63.1561C42.016 63.4895 42.4516 63.6975 42.9182 63.7442C43.5886 63.819 44.2623 63.8597 44.9369 63.8663L43.9503 72.8555C43.9349 73.0078 43.9547 73.1617 44.0082 73.3051C44.0618 73.4486 44.1476 73.5778 44.259 73.6829C44.3705 73.7879 44.5046 73.8658 44.651 73.9108C44.7974 73.9557 44.9521 73.9664 45.1033 73.9419C47.8667 73.498 54.3144 71.8678 56.7637 66.2656C57.6293 64.2791 57.8069 61.9608 57.6071 59.6414C59.1611 58.5464 60.6164 57.3177 61.9563 55.9692C69.5449 48.4227 74.7708 34.7881 73.317 28.4524ZM55.2111 46.1932C54.5483 45.5305 54.0969 44.6862 53.9139 43.7669C53.731 42.8476 53.8248 41.8948 54.1834 41.0288C54.542 40.1629 55.1494 39.4227 55.9287 38.902C56.708 38.3812 57.6242 38.1033 58.5615 38.1033C59.4988 38.1033 60.415 38.3812 61.1943 38.902C61.9736 39.4227 62.581 40.1629 62.9396 41.0288C63.2983 41.8948 63.392 42.8476 63.2091 43.7669C63.0262 44.6862 62.5748 45.5305 61.9119 46.1932C61.4723 46.6338 60.95 46.9833 60.3751 47.2218C59.8002 47.4603 59.1839 47.5831 58.5615 47.5831C57.9391 47.5831 57.3228 47.4603 56.7479 47.2218C56.173 46.9833 55.6508 46.6338 55.2111 46.1932Z" stroke="#0199FF" stroke-width="3.55127" stroke-linecap="round" stroke-linejoin="round"/>
<path d="M34.2344 61.5442C33.1281 61.68 32.0989 62.1815 31.3102 62.9691C29.3548 64.9312 29.1694 72.198 29.1694 72.198C29.1694 72.198 36.4407 72.0127 38.3972 70.055C39.188 69.2676 39.6904 68.2366 39.8232 67.1286" stroke="#0199FF" stroke-width="3.55127" stroke-linecap="round" stroke-linejoin="round"/>
<defs>
<filter id="filter0_d_75_721" x="3.00928" y="0.19751" width="94.9341" height="109.386" filterUnits="userSpaceOnUse" color-interpolation-filters="sRGB">
<feFlood flood-opacity="0" result="BackgroundImageFix"/>
<feColorMatrix in="SourceAlpha" type="matrix" values="0 0 0 0 0 0 0 0 0 0 0 0 0 0 0 0 0 0 127 0" result="hardAlpha"/>
<feOffset dy="4"/>
<feGaussianBlur stdDeviation="2"/>
<feComposite in2="hardAlpha" operator="out"/>
<feColorMatrix type="matrix" values="0 0 0 0 0 0 0 0 0 0 0 0 0 0 0 0 0 0 0.25 0"/>
<feBlend mode="normal" in2="BackgroundImageFix" result="effect1_dropShadow_75_721"/>
<feBlend mode="normal" in="SourceGraphic" in2="effect1_dropShadow_75_721" result="shape"/>
</filter>
</defs>
</svg>
