<svg width="101" height="102" viewBox="0 0 101 102" fill="none" xmlns="http://www.w3.org/2000/svg">
<path d="M92.6912 75.7615L50.7244 100.233L8.75752 75.7615L8.75752 26.7918L50.7244 2.31993L92.6912 26.7918L92.6912 75.7615Z" stroke="#0199FF" stroke-width="3"/>
<path d="M50.7263 32.1099C61.3116 32.1099 69.8929 40.6911 69.8929 51.2765C69.8929 59.7091 64.4473 66.8696 56.8811 69.4335L56.4473 69.5748L50.8815 55.1041C52.9304 55.014 54.5596 53.2975 54.5596 51.2765C54.5596 49.1594 52.8432 47.4432 50.7263 47.4432C48.6091 47.4432 46.8929 49.1594 46.8929 51.2765C46.8929 53.3404 48.5238 55.0232 50.5672 55.1066L45.0031 69.5742L44.5714 69.4335C37.0051 66.8696 31.5596 59.7091 31.5596 51.2765C31.5596 40.6911 40.1408 32.1099 50.7263 32.1099ZM50.7263 35.9432C42.2579 35.9432 35.3929 42.8082 35.3929 51.2765C35.3929 56.8734 38.3915 61.7697 42.8698 64.4469L45.7055 57.0706C44.0846 55.6649 43.0596 53.5905 43.0596 51.2765C43.0596 47.0423 46.4921 43.6099 50.7263 43.6099C54.9604 43.6099 58.3929 47.0423 58.3929 51.2765C58.3929 53.5909 57.3675 55.6657 55.746 57.0714C56.8311 59.8956 57.7771 62.3554 58.5823 64.4496C63.0604 61.7705 66.0596 56.8738 66.0596 51.2765C66.0596 42.8082 59.1947 35.9432 50.7263 35.9432Z" fill="#0199FF"/>
</svg>
