<svg width="101" height="103" viewBox="0 0 101 103" fill="none" xmlns="http://www.w3.org/2000/svg">
<path d="M92.158 75.9123L50.1911 100.384L8.22431 75.9123L8.22432 26.9427L50.1912 2.47081L92.158 26.9427L92.158 75.9123Z" stroke="#0199FF" stroke-width="3"/>
<path d="M57.2261 45.9277V37.207C57.2261 35.2593 56.4524 33.3914 55.0751 32.0142C53.6979 30.637 51.83 29.8633 49.8823 29.8633C47.9346 29.8633 46.0667 30.637 44.6895 32.0142C43.3123 33.3914 42.5386 35.2593 42.5386 37.207V45.9277" stroke="#0199FF" stroke-width="3.32245" stroke-linecap="round" stroke-linejoin="round"/>
<path d="M60.1636 45.9277H39.6011C37.1676 45.9277 35.1948 47.9005 35.1948 50.334V66.4902C35.1948 68.9237 37.1676 70.8965 39.6011 70.8965H60.1636C62.5971 70.8965 64.5698 68.9237 64.5698 66.4902V50.334C64.5698 47.9005 62.5971 45.9277 60.1636 45.9277Z" stroke="#0199FF" stroke-width="3.32245" stroke-linecap="round" stroke-linejoin="round"/>
</svg>
