<svg width="102" height="102" viewBox="0 0 102 102" fill="none" xmlns="http://www.w3.org/2000/svg">
<path d="M29.0895 40.4195C29.9976 40.4261 30.8925 40.5918 31.7741 40.9166C32.6558 41.2414 33.4512 41.7718 34.1605 42.5075C34.8764 43.2433 35.4465 44.2377 35.8707 45.4905C36.3016 46.7367 36.5204 48.2878 36.527 50.1439C36.527 51.9271 36.348 53.5146 35.9901 54.9067C35.6321 56.2921 35.1184 57.4621 34.4489 58.4166C33.786 59.3712 32.9806 60.097 32.0327 60.5942C31.0848 61.0914 30.0175 61.3399 28.831 61.3399C27.6179 61.3399 26.5407 61.1013 25.5994 60.624C24.6581 60.1468 23.8925 59.4872 23.3026 58.6453C22.7126 57.7968 22.3447 56.8224 22.1989 55.722H25.2315C25.4304 56.597 25.8348 57.3063 26.4446 57.8499C27.0611 58.3868 27.8565 58.6553 28.831 58.6553C30.3224 58.6553 31.4858 58.0057 32.321 56.7064C33.1563 55.4005 33.5772 53.5776 33.5838 51.2377H33.4247C33.08 51.8077 32.6491 52.2983 32.1321 52.7093C31.6217 53.1202 31.0483 53.4384 30.4119 53.6638C29.7756 53.8892 29.0961 54.0019 28.3736 54.0019C27.2003 54.0019 26.133 53.7135 25.1719 53.1368C24.2107 52.5601 23.4451 51.768 22.875 50.7604C22.3049 49.7528 22.0199 48.6027 22.0199 47.3101C22.0199 46.0241 22.3116 44.8575 22.8949 43.8101C23.4848 42.7628 24.3068 41.9342 25.3608 41.3243C26.4214 40.7078 27.6643 40.4062 29.0895 40.4195ZM29.0994 43.0047C28.3239 43.0047 27.6245 43.1969 27.0014 43.5814C26.3849 43.9593 25.8977 44.473 25.5398 45.1226C25.1818 45.7656 25.0028 46.4815 25.0028 47.2703C25.0028 48.0592 25.1752 48.7751 25.5199 49.4181C25.8712 50.0544 26.3485 50.5615 26.9517 50.9394C27.5616 51.3106 28.2576 51.4962 29.0398 51.4962C29.6231 51.4962 30.1667 51.3835 30.6705 51.1581C31.1742 50.9327 31.6151 50.6212 31.9929 50.2235C32.3707 49.8191 32.6657 49.3617 32.8778 48.8513C33.09 48.3409 33.196 47.8039 33.196 47.2405C33.196 46.4914 33.017 45.7954 32.6591 45.1524C32.3078 44.5094 31.8239 43.9924 31.2074 43.6013C30.5909 43.2036 29.8883 43.0047 29.0994 43.0047ZM46.8903 40.4195C47.7984 40.4261 48.6933 40.5918 49.5749 40.9166C50.4566 41.2414 51.252 41.7718 51.9613 42.5075C52.6772 43.2433 53.2473 44.2377 53.6715 45.4905C54.1024 46.7367 54.3211 48.2878 54.3278 50.1439C54.3278 51.9271 54.1488 53.5146 53.7908 54.9067C53.4329 56.2921 52.9192 57.4621 52.2496 58.4166C51.5868 59.3712 50.7814 60.097 49.8335 60.5942C48.8855 61.0914 47.8183 61.3399 46.6317 61.3399C45.4187 61.3399 44.3415 61.1013 43.4002 60.624C42.4589 60.1468 41.6933 59.4872 41.1033 58.6453C40.5134 57.7968 40.1455 56.8224 39.9996 55.722H43.0323C43.2312 56.597 43.6355 57.3063 44.2454 57.8499C44.8619 58.3868 45.6573 58.6553 46.6317 58.6553C48.1232 58.6553 49.2866 58.0057 50.1218 56.7064C50.957 55.4005 51.378 53.5776 51.3846 51.2377H51.2255C50.8808 51.8077 50.4499 52.2983 49.9329 52.7093C49.4225 53.1202 48.8491 53.4384 48.2127 53.6638C47.5764 53.8892 46.8969 54.0019 46.1744 54.0019C45.0011 54.0019 43.9338 53.7135 42.9727 53.1368C42.0115 52.5601 41.2459 51.768 40.6758 50.7604C40.1057 49.7528 39.8207 48.6027 39.8207 47.3101C39.8207 46.0241 40.1123 44.8575 40.6957 43.8101C41.2856 42.7628 42.1076 41.9342 43.1616 41.3243C44.2222 40.7078 45.4651 40.4062 46.8903 40.4195ZM46.9002 43.0047C46.1246 43.0047 45.4253 43.1969 44.8022 43.5814C44.1857 43.9593 43.6985 44.473 43.3406 45.1226C42.9826 45.7656 42.8036 46.4815 42.8036 47.2703C42.8036 48.0592 42.976 48.7751 43.3207 49.4181C43.672 50.0544 44.1493 50.5615 44.7525 50.9394C45.3623 51.3106 46.0584 51.4962 46.8406 51.4962C47.4239 51.4962 47.9674 51.3835 48.4712 51.1581C48.975 50.9327 49.4158 50.6212 49.7937 50.2235C50.1715 49.8191 50.4665 49.3617 50.6786 48.8513C50.8907 48.3409 50.9968 47.8039 50.9968 47.2405C50.9968 46.4914 50.8178 45.7954 50.4599 45.1524C50.1085 44.5094 49.6246 43.9924 49.0082 43.6013C48.3917 43.2036 47.689 43.0047 46.9002 43.0047ZM59.18 61.2504C58.6365 61.2504 58.1692 61.0582 57.7781 60.6737C57.387 60.2826 57.1914 59.812 57.1914 59.2618C57.1914 58.7182 57.387 58.2542 57.7781 57.8698C58.1692 57.4787 58.6365 57.2831 59.18 57.2831C59.7236 57.2831 60.1909 57.4787 60.582 57.8698C60.9731 58.2542 61.1687 58.7182 61.1687 59.2618C61.1687 59.6264 61.0759 59.9611 60.8903 60.2661C60.7113 60.5644 60.4727 60.803 60.1744 60.982C59.8761 61.161 59.5446 61.2504 59.18 61.2504ZM71.6364 40.4195C72.5445 40.4261 73.4394 40.5918 74.321 40.9166C75.2027 41.2414 75.9981 41.7718 76.7074 42.5075C77.4233 43.2433 77.9934 44.2377 78.4176 45.4905C78.8485 46.7367 79.0672 48.2878 79.0739 50.1439C79.0739 51.9271 78.8949 53.5146 78.5369 54.9067C78.179 56.2921 77.6652 57.4621 76.9957 58.4166C76.3329 59.3712 75.5275 60.097 74.5795 60.5942C73.6316 61.0914 72.5644 61.3399 71.3778 61.3399C70.1648 61.3399 69.0876 61.1013 68.1463 60.624C67.205 60.1468 66.4394 59.4872 65.8494 58.6453C65.2595 57.7968 64.8916 56.8224 64.7457 55.722H67.7784C67.9773 56.597 68.3816 57.3063 68.9915 57.8499C69.608 58.3868 70.4034 58.6553 71.3778 58.6553C72.8693 58.6553 74.0327 58.0057 74.8679 56.7064C75.7031 55.4005 76.1241 53.5776 76.1307 51.2377H75.9716C75.6269 51.8077 75.196 52.2983 74.679 52.7093C74.1686 53.1202 73.5952 53.4384 72.9588 53.6638C72.3224 53.8892 71.643 54.0019 70.9205 54.0019C69.7472 54.0019 68.6799 53.7135 67.7188 53.1368C66.7576 52.5601 65.992 51.768 65.4219 50.7604C64.8518 49.7528 64.5668 48.6027 64.5668 47.3101C64.5668 46.0241 64.8584 44.8575 65.4418 43.8101C66.0317 42.7628 66.8537 41.9342 67.9077 41.3243C68.9683 40.7078 70.2112 40.4062 71.6364 40.4195ZM71.6463 43.0047C70.8707 43.0047 70.1714 43.1969 69.5483 43.5814C68.9318 43.9593 68.4446 44.473 68.0866 45.1226C67.7287 45.7656 67.5497 46.4815 67.5497 47.2703C67.5497 48.0592 67.7221 48.7751 68.0668 49.4181C68.4181 50.0544 68.8954 50.5615 69.4986 50.9394C70.1084 51.3106 70.8045 51.4962 71.5866 51.4962C72.17 51.4962 72.7135 51.3835 73.2173 51.1581C73.7211 50.9327 74.1619 50.6212 74.5398 50.2235C74.9176 49.8191 75.2126 49.3617 75.4247 48.8513C75.6368 48.3409 75.7429 47.8039 75.7429 47.2405C75.7429 46.4914 75.5639 45.7954 75.206 45.1524C74.8546 44.5094 74.3707 43.9924 73.7543 43.6013C73.1378 43.2036 72.4351 43.0047 71.6463 43.0047Z" fill="#0199FF"/>
<path d="M92.826 75.5464L50.8591 100.018L8.89228 75.5464L8.89229 26.5767L50.8591 2.10485L92.826 26.5767L92.826 75.5464Z" stroke="#0199FF" stroke-width="3"/>
</svg>
