<?xml version="1.0" encoding="UTF-8" standalone="no"?>
<!-- Created with Inkscape (http://www.inkscape.org/) -->

<svg
   width="600"
   height="600"
   viewBox="0 0 158.74999 158.75"
   version="1.1"
   id="svg1"
   xmlns="http://www.w3.org/2000/svg"
   xmlns:svg="http://www.w3.org/2000/svg">
  <defs
     id="defs1">
    <marker
       style="overflow:visible"
       id="Triangle-1-3-3-2-8_F-ffffff_S-00ff20"
       refX="0"
       refY="0"
       orient="auto-start-reverse"
       markerWidth="1.001"
       markerHeight="1.001"
       viewBox="0 0 1 1"
       preserveAspectRatio="xMidYMid">
      <path
         transform="scale(0.5)"
         style="fill:#00ff20;fill-rule:evenodd;stroke:#00ff20;stroke-width:1pt"
         d="M 5.77,0 -2.88,5 V -5 Z"
         id="path31" />
    </marker>
    <marker
       style="overflow:visible"
       id="Triangle-1-3-3-2-8_F-ffffff_S-00ff20_reversed"
       refX="0"
       refY="0"
       orient="auto"
       markerWidth="1.001"
       markerHeight="1.001"
       viewBox="0 0 1 1"
       preserveAspectRatio="xMidYMid">
      <g
         transform="scale(-1)"
         id="g44">
        <path
           transform="scale(0.5)"
           style="fill:#00ff20;fill-rule:evenodd;stroke:#00ff20;stroke-width:1pt"
           d="M 5.77,0 -2.88,5 V -5 Z"
           id="path44" />
      </g>
    </marker>
    <marker
       style="overflow:visible"
       id="Triangle-9-5-2-8-4-6_F-ffffff_S-00ff20"
       refX="0"
       refY="0"
       orient="auto-start-reverse"
       markerWidth="1.001"
       markerHeight="1.001"
       viewBox="0 0 1 1"
       preserveAspectRatio="xMidYMid">
      <path
         transform="scale(0.5)"
         style="fill:#00ff20;fill-rule:evenodd;stroke:#00ff20;stroke-width:1pt"
         d="M 5.77,0 -2.88,5 V -5 Z"
         id="path32" />
    </marker>
    <marker
       style="overflow:visible"
       id="Triangle-9-5-2-8-4-6_F-ffffff_S-00ff20_reversed"
       refX="0"
       refY="0"
       orient="auto"
       markerWidth="1.001"
       markerHeight="1.001"
       viewBox="0 0 1 1"
       preserveAspectRatio="xMidYMid">
      <g
         transform="scale(-1)"
         id="g45">
        <path
           transform="scale(0.5)"
           style="fill:#00ff20;fill-rule:evenodd;stroke:#00ff20;stroke-width:1pt"
           d="M 5.77,0 -2.88,5 V -5 Z"
           id="path45" />
      </g>
    </marker>
    <marker
       style="overflow:visible"
       id="Triangle-94-9-7-5-2-9_F-ffffff_S-00ff20"
       refX="0"
       refY="0"
       orient="auto-start-reverse"
       markerWidth="1.001"
       markerHeight="1.001"
       viewBox="0 0 1 1"
       preserveAspectRatio="xMidYMid">
      <path
         transform="scale(0.5)"
         style="fill:#00ff20;fill-rule:evenodd;stroke:#00ff20;stroke-width:1pt"
         d="M 5.77,0 -2.88,5 V -5 Z"
         id="path33" />
    </marker>
    <marker
       style="overflow:visible"
       id="Triangle-94-9-7-5-2-9_F-ffffff_S-00ff20_reversed"
       refX="0"
       refY="0"
       orient="auto"
       markerWidth="1.001"
       markerHeight="1.001"
       viewBox="0 0 1 1"
       preserveAspectRatio="xMidYMid">
      <g
         transform="scale(-1)"
         id="g46">
        <path
           transform="scale(0.5)"
           style="fill:#00ff20;fill-rule:evenodd;stroke:#00ff20;stroke-width:1pt"
           d="M 5.77,0 -2.88,5 V -5 Z"
           id="path46" />
      </g>
    </marker>
    <marker
       style="overflow:visible"
       id="Triangle-0-7-6-9-1-5_F-ffffff_S-00ff20"
       refX="0"
       refY="0"
       orient="auto-start-reverse"
       markerWidth="1.001"
       markerHeight="1.001"
       viewBox="0 0 1 1"
       preserveAspectRatio="xMidYMid">
      <path
         transform="scale(0.5)"
         style="fill:#00ff20;fill-rule:evenodd;stroke:#00ff20;stroke-width:1pt"
         d="M 5.77,0 -2.88,5 V -5 Z"
         id="path34" />
    </marker>
    <marker
       style="overflow:visible"
       id="Triangle-0-7-6-9-1-5_F-ffffff_S-00ff20_reversed"
       refX="0"
       refY="0"
       orient="auto"
       markerWidth="1.001"
       markerHeight="1.001"
       viewBox="0 0 1 1"
       preserveAspectRatio="xMidYMid">
      <g
         transform="scale(-1)"
         id="g47">
        <path
           transform="scale(0.5)"
           style="fill:#00ff20;fill-rule:evenodd;stroke:#00ff20;stroke-width:1pt"
           d="M 5.77,0 -2.88,5 V -5 Z"
           id="path47" />
      </g>
    </marker>
    <marker
       style="overflow:visible"
       id="Triangle-9-5-2-8-4-6-8_Fnone_S-ffdd00"
       refX="0"
       refY="0"
       orient="auto-start-reverse"
       markerWidth="1.001"
       markerHeight="1.001"
       viewBox="0 0 1 1"
       preserveAspectRatio="xMidYMid">
      <path
         transform="scale(0.5)"
         style="fill:#ffdd00;fill-rule:evenodd;stroke:#ffdd00;stroke-width:1pt"
         d="M 5.77,0 -2.88,5 V -5 Z"
         id="path35" />
    </marker>
    <marker
       style="overflow:visible"
       id="Triangle-9-5-2-8-4-6-8_Fnone_S-ffdd00_reversed"
       refX="0"
       refY="0"
       orient="auto"
       markerWidth="1.001"
       markerHeight="1.001"
       viewBox="0 0 1 1"
       preserveAspectRatio="xMidYMid">
      <g
         transform="scale(-1)"
         id="g48">
        <path
           transform="scale(0.5)"
           style="fill:#ffdd00;fill-rule:evenodd;stroke:#ffdd00;stroke-width:1pt"
           d="M 5.77,0 -2.88,5 V -5 Z"
           id="path48" />
      </g>
    </marker>
    <marker
       style="overflow:visible"
       id="Triangle-9-5-2-8-4-6-8-4_Fnone_S-ffdd00"
       refX="0"
       refY="0"
       orient="auto-start-reverse"
       markerWidth="1.001"
       markerHeight="1.001"
       viewBox="0 0 1 1"
       preserveAspectRatio="xMidYMid">
      <path
         transform="scale(0.5)"
         style="fill:#ffdd00;fill-rule:evenodd;stroke:#ffdd00;stroke-width:1pt"
         d="M 5.77,0 -2.88,5 V -5 Z"
         id="path36" />
    </marker>
    <marker
       style="overflow:visible"
       id="Triangle-9-5-2-8-4-6-8-4_Fnone_S-ffdd00_reversed"
       refX="0"
       refY="0"
       orient="auto"
       markerWidth="1.001"
       markerHeight="1.001"
       viewBox="0 0 1 1"
       preserveAspectRatio="xMidYMid">
      <g
         transform="scale(-1)"
         id="g49">
        <path
           transform="scale(0.5)"
           style="fill:#ffdd00;fill-rule:evenodd;stroke:#ffdd00;stroke-width:1pt"
           d="M 5.77,0 -2.88,5 V -5 Z"
           id="path49" />
      </g>
    </marker>
  </defs>
  <g
     id="layer1"
     style="display:inline;opacity:1"
     transform="translate(309.70884,-796.92496)">
    <path
       d="m -246.09633,920.74102 -7.41275,-0.008 c -0.81542,0 -1.48256,0.66713 -1.48256,1.48254 v 13.34296 c 0,0.81542 0.66714,1.48256 1.48256,1.48256 h 7.41275 c 0.8154,0 1.48256,-0.66714 1.48256,-1.48256 v -13.34296 c 0,-0.81541 -0.66716,-1.47514 -1.48256,-1.47514 z m 0,13.33553 h -7.41275 v -10.37787 h 7.41275 z"
       id="path2-6-29"
       style="display:inline;fill:#ffffff;fill-opacity:1;stroke-width:0.741275" />
    <path
       d="m -278.62333,934.17883 c 0.97015,0 1.7551,-0.79375 1.7551,-1.76394 l 0.0105,-8.81962 c 0,-0.97016 -0.79374,-1.76394 -1.76393,-1.76394 h -14.11139 c -0.97017,0 -1.76395,0.79378 -1.76395,1.76394 v 8.81962 c 0,0.97019 0.79378,1.76394 1.76395,1.76394 h -3.52789 v 1.76394 h 21.16713 v -1.76394 z m -14.1114,-10.58356 h 14.1114 v 8.81962 h -14.1114 z"
       id="path2-5-43"
       style="display:inline;fill:#ffffff;fill-opacity:1;stroke-width:0.881965" />
    <path
       d="m -184.79394,926.4161 v 5.55964 a 0.61773791,0.61773791 0 0 0 0.61775,0.61775 h 6.17737 a 0.61773791,0.61773791 0 0 1 0,1.23547 h -1.23548 v 1.23548 h 1.23548 a 0.61773802,0.61773802 0 0 1 0,1.23547 h -3.70642 a 0.61773802,0.61773802 0 0 1 0,-1.23547 h 1.23547 v -1.23548 h -3.70642 a 1.8532137,1.8532137 0 0 1 -1.85322,-1.85322 v -5.55964 a 1.8532137,1.8532137 0 0 1 1.85322,-1.85321 h 6.17737 a 0.61773791,0.61773791 0 0 1 0,1.23547 h -6.17737 a 0.61773791,0.61773791 0 0 0 -0.61775,0.61774 z m 14.20798,-2.47095 h -2.47095 a 0.61774,0.61774 0 0 0 0,1.23548 h 2.47095 a 0.61774,0.61774 0 0 0 0,-1.23548 z m 0,2.47095 h -2.47095 a 0.61774,0.61774 0 0 0 0,1.23548 h 2.47095 a 0.61774,0.61774 0 0 0 0,-1.23548 z m 3.08869,-3.70642 v 12.35476 a 1.2354758,1.2354758 0 0 1 -1.23548,1.23547 h -6.17738 a 1.2354758,1.2354758 0 0 1 -1.23548,-1.23547 v -12.35476 a 1.2354758,1.2354758 0 0 1 1.23548,-1.23548 h 6.17738 a 1.2354758,1.2354758 0 0 1 1.23548,1.23548 z m -1.23548,12.35476 v -12.35476 h -6.17738 v 12.35476 z m -3.08869,-3.0887 a 0.92660689,0.92660689 0 1 0 0.92661,0.92661 0.92660689,0.92660689 0 0 0 -0.92661,-0.92661 z"
       id="path1-0-5"
       style="display:inline;fill:#ffffff;fill-opacity:1;stroke-width:0.077217" />
    <path
       d="m -207.28939,924.02242 h -5.34703 l 2.31773,-2.31776 -0.49312,-0.50019 -2.81796,2.81795 -2.81795,-2.81795 -0.50017,0.50019 2.32479,2.31776 h -5.34707 a 1.4089751,1.4089751 0 0 0 -1.40895,1.40897 v 8.45386 c 0,0.77493 0.63403,1.40897 1.40895,1.40897 h 12.68078 c 0.77494,0 1.40899,-0.63404 1.40899,-1.40897 v -8.45386 a 1.4089751,1.4089751 0 0 0 -1.40899,-1.40897 z m 0,9.86283 h -12.68078 v -8.45386 h 12.68078 z m -8.45384,-7.04488 v 5.6359 l 4.93142,-2.81794 z"
       id="path2-2-1"
       style="display:inline;fill:#ffffff;fill-opacity:1;stroke-width:0.704487" />
    <path
       d="m -225.74103,864.17372 c 0,-0.50521 -0.41336,-0.91856 -0.91856,-0.91856 h -7.34851 c -0.5052,0 -0.91856,0.41335 -0.91856,0.91856 v 5.51135 c 0,0.5052 0.41336,0.91856 0.91856,0.91856 h 7.3485 c 0.50521,0 0.91856,-0.41336 0.91856,-0.91856 z m -0.91856,0 -3.67426,2.29638 -3.67425,-2.29638 z m 0,5.51135 h -7.34851 v -4.59279 l 3.67425,2.29638 3.67425,-2.29638 z"
       id="path2-7-7-0-4-2-7"
       style="display:inline;fill:#00ff20;fill-opacity:1;stroke-width:0.459279" />
    <path
       d="m -269.19033,822.16948 c 0,-0.37144 -0.3039,-0.67533 -0.67533,-0.67533 h -5.40268 c -0.37142,0 -0.67533,0.3039 -0.67533,0.67533 v 4.05198 c 0,0.37143 0.30391,0.67533 0.67533,0.67533 h 5.40268 c 0.37143,0 0.67533,-0.3039 0.67533,-0.67533 z m -0.67533,0 -2.70134,1.68832 -2.70134,-1.68832 z m 0,4.05198 h -5.40268 v -3.37665 l 2.70134,1.68831 2.70134,-1.68831 z"
       id="path2-7-7-0-4-2-7-5"
       style="display:inline;fill:#00ff20;fill-opacity:1;stroke-width:0.337665" />
    <path
       d="m -217.34616,878.33288 c -2.92648,0 -5.30158,2.3751 -5.30158,5.30157 0,2.92648 2.3751,5.30159 5.30158,5.30159 2.92647,0 5.30157,-2.37511 5.30157,-5.30159 0,-2.92647 -2.37507,-5.30157 -5.30157,-5.30157 z m 0,9.54284 c -2.33799,0 -4.24127,-1.90328 -4.24127,-4.24127 0,-2.33798 1.90328,-4.24127 4.24127,-4.24127 2.33799,0 4.24126,1.90329 4.24126,4.24127 0,2.33799 -1.90327,4.24127 -4.24126,4.24127 z m -1.32539,-1.85555 3.7111,-2.38572 -3.7111,-2.38571 z"
       id="path2-56-9-8-9-1-1"
       style="display:inline;fill:#00ff20;fill-opacity:1;stroke-width:0.530157" />
    <path
       d="m -262.7662,820.76723 c -1.89239,0 -3.42824,1.53585 -3.42824,3.42823 0,1.8924 1.53584,3.42825 3.42824,3.42825 1.89239,0 3.42823,-1.53585 3.42823,-3.42825 0,-1.89238 -1.53583,-3.42823 -3.42823,-3.42823 z m 0,6.17083 c -1.51185,0 -2.7426,-1.23075 -2.7426,-2.7426 0,-1.51184 1.23075,-2.74259 2.7426,-2.74259 1.51185,0 2.74259,1.23075 2.74259,2.74259 0,1.51185 -1.23074,2.7426 -2.74259,2.7426 z m -0.85706,-1.19988 2.39977,-1.54272 -2.39977,-1.5427 z"
       id="path2-56-9-8-9-1-1-7"
       style="display:inline;fill:#00ff20;fill-opacity:1;stroke-width:0.342823" />
    <path
       d="m -220.96334,896.99053 h 6.83218 v 0.80379 h -6.83218 c -0.44208,0 -0.8038,-0.36171 -0.8038,-0.80379 v -5.22462 h 0.8038 z m 8.03786,-5.22462 v 3.61704 c 0,0.44208 -0.36169,0.80379 -0.80377,0.80379 h -5.62652 c -0.44208,0 -0.80379,-0.36171 -0.80379,-0.80379 l 0.004,-4.42082 c 0,-0.44209 0.35768,-0.80379 0.79977,-0.80379 h 2.00947 l 0.80377,0.80379 h 2.81326 c 0.44208,0 0.80379,0.3617 0.80379,0.80378 z m -6.43029,3.61704 h 5.62652 v -3.61704 h -3.14682 l -0.80381,-0.80378 h -1.67589 z"
       id="path2-54-0-8-0-8-6-3-9-2"
       style="display:inline;fill:#00ff20;fill-opacity:1;stroke-width:0.401893" />
    <path
       d="m -265.88265,834.19774 h 5.29817 v 0.62332 h -5.29817 c -0.34283,0 -0.62333,-0.2805 -0.62333,-0.62332 v -4.05155 h 0.62333 z m 6.23314,-4.05155 v 2.80492 c 0,0.34282 -0.28048,0.62331 -0.6233,0.62331 h -4.36322 c -0.34282,0 -0.62331,-0.28049 -0.62331,-0.62331 l 0.003,-3.42823 c 0,-0.34283 0.27737,-0.62332 0.6202,-0.62332 h 1.55829 l 0.6233,0.62332 h 2.1816 c 0.34283,0 0.62332,0.28049 0.62332,0.62331 z m -4.98652,2.80492 h 4.36322 v -2.80492 h -2.44028 l -0.62333,-0.62331 h -1.29961 z"
       id="path2-54-0-8-0-8-6-3-9-2-1"
       style="display:inline;fill:#00ff20;fill-opacity:1;stroke-width:0.311657" />
    <path
       fill="none"
       stroke-linecap="round"
       stroke-linejoin="round"
       stroke-width="0.787175"
       d="m -241.6995,885.76712 -2.8176,-1.80262 a 0.78717466,0.78717466 0 0 0 -0.72026,0.009 l -2.77824,1.86413 a 0.39358731,0.39358731 0 0 0 -0.20934,0.34783 v 7.27643 a 0.39358731,0.39358731 0 0 0 0.57784,0.34784 l 2.40629,-1.56919 a 0.78717466,0.78717466 0 0 1 0.72568,-0.006 l 2.75166,1.79575 a 0.78717466,0.78717466 0 0 0 0.72001,-0.003 l 2.8395,-1.86805 a 0.39358731,0.39358731 0 0 0 0.21228,-0.3493 v -7.27449 a 0.39358731,0.39358731 0 0 0 -0.57783,-0.34783 l -2.41072,1.5709 a 0.78717466,0.78717466 0 0 1 -0.71927,0.009 z m 0.36232,0.0826 v 8.26534 m -3.54226,-10.23326 v 8.26533"
       id="path1-6-5-2-5-0-2"
       style="display:inline;fill:none;fill-opacity:1;stroke:#00ff20;stroke-opacity:1" />
    <path
       fill="none"
       stroke-linecap="round"
       stroke-linejoin="round"
       stroke-width="0.395093"
       d="m -271.84418,830.45835 -1.4142,-0.90475 a 0.39509287,0.39509287 0 0 0 -0.36151,0.005 l -1.39443,0.93563 a 0.19754642,0.19754642 0 0 0 -0.10507,0.17458 v 3.65214 a 0.19754642,0.19754642 0 0 0 0.29002,0.17458 l 1.20775,-0.78759 a 0.39509287,0.39509287 0 0 1 0.36423,-0.003 l 1.38109,0.90131 a 0.39509287,0.39509287 0 0 0 0.36138,-0.001 l 1.42518,-0.9376 a 0.19754642,0.19754642 0 0 0 0.10655,-0.17532 v -3.65116 a 0.19754642,0.19754642 0 0 0 -0.29002,-0.17458 l -1.20997,0.78846 a 0.39509287,0.39509287 0 0 1 -0.36101,0.005 z m 0.18185,0.0415 v 4.14848 m -1.7779,-5.1362 v 4.14847"
       id="path1-6-5-2-5-0-2-0"
       style="display:inline;fill:none;fill-opacity:1;stroke:#00ff20;stroke-opacity:1" />
    <path
       style="display:inline;fill:none;fill-opacity:1;stroke:#ffdd00;stroke-width:2.15727;stroke-miterlimit:4;stroke-dasharray:none;stroke-opacity:1"
       id="path1-5-6-4-49-5"
       d="m 67.052309,41.5333 20.959925,36.30365 -20.959921,36.30365 -41.919846,0 L 4.1725426,77.836954 25.132464,41.533302 Z"
       transform="matrix(0.26228546,0.15143058,-0.15143058,0.26228546,-230.63631,839.5341)" />
    <path
       style="display:inline;fill:none;fill-opacity:1;stroke:#ffdd00;stroke-width:2.15727;stroke-miterlimit:4;stroke-dasharray:none;stroke-opacity:1"
       id="path1-5-6-4-49-5-9"
       d="m 67.052309,41.5333 20.959925,36.30365 -20.959921,36.30365 -41.919846,0 L 4.1725426,77.836954 25.132464,41.533302 Z"
       transform="matrix(0.26228546,0.15143058,-0.15143058,0.26228546,-268.13214,800.47441)" />
    <path
       d="m -190.39474,822.16948 c 0,-0.37144 -0.3039,-0.67533 -0.67533,-0.67533 h -5.40268 c -0.37142,0 -0.67533,0.3039 -0.67533,0.67533 v 4.05198 c 0,0.37143 0.30391,0.67533 0.67533,0.67533 h 5.40268 c 0.37143,0 0.67533,-0.3039 0.67533,-0.67533 z m -0.67533,0 -2.70134,1.68832 -2.70134,-1.68832 z m 0,4.05198 h -5.40268 v -3.37665 l 2.70134,1.68831 2.70134,-1.68831 z"
       id="path2-7-7-0-4-2-7-5-6"
       style="display:inline;fill:#00ff20;fill-opacity:1;stroke-width:0.337665" />
    <path
       d="m -183.97061,820.76723 c -1.89239,0 -3.42824,1.53585 -3.42824,3.42823 0,1.8924 1.53584,3.42825 3.42824,3.42825 1.89239,0 3.42823,-1.53585 3.42823,-3.42825 0,-1.89238 -1.53583,-3.42823 -3.42823,-3.42823 z m 0,6.17083 c -1.51185,0 -2.7426,-1.23075 -2.7426,-2.7426 0,-1.51184 1.23075,-2.74259 2.7426,-2.74259 1.51185,0 2.74259,1.23075 2.74259,2.74259 0,1.51185 -1.23074,2.7426 -2.74259,2.7426 z m -0.85706,-1.19988 2.39977,-1.54272 -2.39977,-1.5427 z"
       id="path2-56-9-8-9-1-1-7-4"
       style="display:inline;fill:#00ff20;fill-opacity:1;stroke-width:0.342823" />
    <path
       d="m -187.08706,834.19774 h 5.29817 v 0.62332 h -5.29817 c -0.34283,0 -0.62333,-0.2805 -0.62333,-0.62332 v -4.05155 h 0.62333 z m 6.23314,-4.05155 v 2.80492 c 0,0.34282 -0.28048,0.62331 -0.6233,0.62331 h -4.36322 c -0.34282,0 -0.62331,-0.28049 -0.62331,-0.62331 l 0.003,-3.42823 c 0,-0.34283 0.27737,-0.62332 0.6202,-0.62332 h 1.55829 l 0.6233,0.62332 h 2.1816 c 0.34283,0 0.62332,0.28049 0.62332,0.62331 z m -4.98652,2.80492 h 4.36322 v -2.80492 h -2.44028 l -0.62333,-0.62331 h -1.29961 z"
       id="path2-54-0-8-0-8-6-3-9-2-1-6"
       style="display:inline;fill:#00ff20;fill-opacity:1;stroke-width:0.311657" />
    <path
       fill="none"
       stroke-linecap="round"
       stroke-linejoin="round"
       stroke-width="0.395093"
       d="m -193.04859,830.45835 -1.4142,-0.90475 a 0.39509287,0.39509287 0 0 0 -0.36151,0.005 l -1.39443,0.93563 a 0.19754642,0.19754642 0 0 0 -0.10507,0.17458 v 3.65214 a 0.19754642,0.19754642 0 0 0 0.29002,0.17458 l 1.20775,-0.78759 a 0.39509287,0.39509287 0 0 1 0.36423,-0.003 l 1.38109,0.90131 a 0.39509287,0.39509287 0 0 0 0.36138,-0.001 l 1.42518,-0.9376 a 0.19754642,0.19754642 0 0 0 0.10655,-0.17532 v -3.65116 a 0.19754642,0.19754642 0 0 0 -0.29002,-0.17458 l -1.20997,0.78846 a 0.39509287,0.39509287 0 0 1 -0.36101,0.005 z m 0.18185,0.0415 v 4.14848 m -1.7779,-5.1362 v 4.14847"
       id="path1-6-5-2-5-0-2-0-3"
       style="display:inline;fill:none;fill-opacity:1;stroke:#00ff20;stroke-opacity:1" />
    <path
       style="display:inline;fill:none;fill-opacity:1;stroke:#ffdd00;stroke-width:2.15727;stroke-miterlimit:4;stroke-dasharray:none;stroke-opacity:1"
       id="path1-5-6-4-49-5-9-7"
       d="m 67.052309,41.5333 20.959925,36.30365 -20.959921,36.30365 -41.919846,0 L 4.1725426,77.836954 25.132464,41.533302 Z"
       transform="matrix(0.26228546,0.15143058,-0.15143058,0.26228546,-189.33655,800.47441)" />
    <path
       style="display:inline;fill:none;fill-opacity:1;stroke:#ffdd00;stroke-width:2.15727;stroke-miterlimit:4;stroke-dasharray:none;stroke-opacity:1"
       id="path1-5-8-0-8-1"
       d="m 67.052309,41.5333 20.959925,36.30365 -20.959921,36.30365 -41.919846,0 L 4.1725426,77.836954 25.132464,41.533302 Z"
       transform="matrix(0.26228546,0.15143058,-0.15143058,0.26228546,-243.41078,861.60351)" />
    <path
       style="display:inline;fill:none;fill-opacity:1;stroke:#ffdd00;stroke-width:2.15727;stroke-miterlimit:4;stroke-dasharray:none;stroke-opacity:1"
       id="path1-5-6-6-3-6-1-0"
       d="m 67.052309,41.5333 20.959925,36.30365 -20.959921,36.30365 -41.919846,0 L 4.1725426,77.836954 25.132464,41.533302 Z"
       transform="matrix(0.26228546,0.15143058,-0.15143058,0.26228546,-217.94017,861.58782)" />
    <path
       style="display:inline;fill:none;fill-opacity:1;stroke:#00ff20;stroke-width:1.30671;stroke-miterlimit:4;stroke-dasharray:none;stroke-opacity:1"
       d="m -230.38363,852.31824 12.74089,7.2949 0.0231,14.84278 12.75192,7.27328 2e-5,14.74569 -12.75194,7.43618 -12.76404,-7.47075 -12.69764,7.35673 -12.71871,-7.28458 -2e-5,-14.98074 12.71873,-7.36238 -0.0206,-14.58512 z"
       id="path198-1-3" />
    <path
       style="display:inline;opacity:1;fill:#ffffff;fill-opacity:1;stroke:#00ff20;stroke-width:0.79375;stroke-dasharray:none;stroke-opacity:1;marker-start:url(#Triangle-1-3-3-2-8_F-ffffff_S-00ff20_reversed);marker-end:url(#Triangle-1-3-3-2-8_F-ffffff_S-00ff20)"
       d="m -255.80003,896.51247 -21.06234,19.95839"
       id="path9-6-4-9-0-3" />
    <path
       style="display:inline;opacity:1;fill:#ffffff;fill-opacity:1;stroke:#00ff20;stroke-width:0.79375;stroke-dasharray:none;stroke-opacity:1;marker-start:url(#Triangle-9-5-2-8-4-6_F-ffffff_S-00ff20_reversed);marker-end:url(#Triangle-9-5-2-8-4-6_F-ffffff_S-00ff20)"
       d="m -243.08132,903.79705 -5.49924,11.83914"
       id="path9-9-1-8-9-7-3" />
    <path
       style="display:inline;opacity:1;fill:#ffffff;fill-opacity:1;stroke:#00ff20;stroke-width:0.79375;stroke-dasharray:none;stroke-opacity:1;marker-start:url(#Triangle-94-9-7-5-2-9_F-ffffff_S-00ff20_reversed);marker-end:url(#Triangle-94-9-7-5-2-9_F-ffffff_S-00ff20)"
       d="m -217.61964,903.91107 2.33002,11.72512"
       id="path9-3-5-7-4-3-8" />
    <path
       style="display:inline;opacity:1;fill:#ffffff;fill-opacity:1;stroke:#00ff20;stroke-width:0.79375;stroke-dasharray:none;stroke-opacity:1;marker-start:url(#Triangle-0-7-6-9-1-5_F-ffffff_S-00ff20_reversed);marker-end:url(#Triangle-0-7-6-9-1-5_F-ffffff_S-00ff20)"
       d="m -204.8677,896.47489 18.83825,19.83112"
       id="path9-1-9-0-5-1-3" />
    <rect
       style="display:inline;fill:none;fill-opacity:1;stroke:#37ff00;stroke-width:0.79375;stroke-linecap:round;stroke-linejoin:round;stroke-dasharray:none;stroke-dashoffset:0;stroke-opacity:1;paint-order:markers fill stroke"
       id="rect16-83-1-4"
       width="142.5713"
       height="96.832382"
       x="-301.61951"
       y="846.09326" />
    <rect
       style="display:inline;fill:none;fill-opacity:1;stroke:#37ff00;stroke-width:0.79375;stroke-linecap:round;stroke-linejoin:round;stroke-dasharray:2.38125, 2.38125;stroke-dashoffset:0;stroke-opacity:1;paint-order:markers fill stroke"
       id="rect16-83-1-4-9"
       width="142.5713"
       height="34.387325"
       x="-301.88022"
       y="811.70593" />
    <path
       style="display:inline;opacity:1;fill:none;fill-opacity:1;stroke:#ffdd00;stroke-width:0.79375;stroke-dasharray:1.5875, 1.5875;stroke-dashoffset:0;stroke-opacity:1;marker-start:url(#Triangle-9-5-2-8-4-6-8_Fnone_S-ffdd00_reversed);marker-end:url(#Triangle-9-5-2-8-4-6-8_Fnone_S-ffdd00)"
       d="m -262.33219,837.39163 26.50086,20.01585"
       id="path9-9-1-8-9-7-3-2" />
    <path
       style="display:inline;opacity:1;fill:none;fill-opacity:1;stroke:#ffdd00;stroke-width:0.79375;stroke-dasharray:1.5875, 1.5875;stroke-dashoffset:0;stroke-opacity:1;marker-start:url(#Triangle-9-5-2-8-4-6-8-4_Fnone_S-ffdd00_reversed);marker-end:url(#Triangle-9-5-2-8-4-6-8-4_Fnone_S-ffdd00)"
       d="m -224.83636,857.40748 30.3048,-20.01585"
       id="path9-9-1-8-9-7-3-2-0" />
  </g>
</svg>
